<svg width="1679" height="697" viewBox="0 0 1679 697" fill="none" xmlns="http://www.w3.org/2000/svg">
<g opacity="0.333697">
<g opacity="0.65">
<path opacity="0.3" fill-rule="evenodd" clip-rule="evenodd" d="M1794.5 75.2036L1793.5 75.8632L1362.73 250.995L1363.37 250.216L1361.01 251.665L1154.24 195.879V195.689L1153.81 195.759H1153.65L1153.56 195.839L925.564 233.816H925.414L925.024 233.886L604.017 289.611L530.228 114.09L530.088 113.75L343.87 133.737H343.701L175.099 289.461L174.739 289.811L174.589 289.951L25.0515 433.523L-50.4067 308.53L133.882 245.568L16.7383 0.749538L16.3786 0L-125.095 191.042L-124.296 191.632L-91.6829 147.599L-67.6226 198.817L-124.996 242.311L-124.396 243.1L-68.1721 200.486L-125.265 336.223L-17.6535 473.708H-96.2191V474.707H-17.8733L-125.036 577.644L-125.515 578.103L-82.3805 603.688L-82.6602 604.227L-125.925 696.37L58.2443 570.728L155.685 695.231L156.514 696.29L160.511 611.603L248.688 695.291L248.878 695.471L669.614 610.403L579.387 694.571L580.067 695.301L670.913 610.533L671.002 610.953L671.532 610.034L672.141 609.964L671.892 609.624L672.891 608.724L672.231 608.864L726.747 512.684L679.725 694.801L680.724 695.051L728.375 510.415L839.395 696.82L835.048 523.997L888.324 577.644L841.053 694.741L841.982 695.111L889.094 578.453L1005 695.231L1006.05 697L1005.91 695.001L1065.99 573.676L1108.84 695.061L1109.78 694.731L1066.61 572.427L1165.02 373.679L1226.69 695.021L1226.94 696.32L1227.53 695.321L1371.6 630.501L1584.67 695.381L1585.86 696.3L1585.67 695.681L1586.1 695.811L1585.36 694.701L1549.22 581.411L1692.51 531.442L1656.36 694.781L1657.35 694.991L1693.42 531.992L1793.34 695.151L1794.2 694.621L1693.71 530.673L1765.92 204.384L1766.41 203.524L1766.1 203.584L1794.22 76.4528L1794.5 75.2036ZM1339.35 506.687L1582.43 693.662L1371.99 629.612L1339.35 506.687ZM24.8417 435.112L-15.9549 474.287L58.4542 569.369L91.7169 546.683L91.2473 546.463L91.9467 546.283L24.8417 435.112ZM57.475 569.749L-80.8018 602.728L-16.5344 475.147L57.475 569.749ZM545.805 403.481L650.249 410.217L603.648 291.39L545.805 403.481ZM352.733 310.808L336.227 475.187L293.791 426.217L352.733 310.808ZM263.416 391.259L293.082 425.408L351.794 310.488L263.416 391.259ZM354.122 307.011L262.757 390.509L176.018 290.521L440.012 246.788L443.329 598.631L337.126 476.226L354.122 307.011ZM319.65 650.799L443.049 599.83L337.036 477.635L319.65 650.799ZM547.324 541.286L505.858 628.612L444.908 599.98L547.324 541.286ZM533.315 427.736L445.097 598.751L547.883 539.807L533.315 427.736ZM548.922 539.787L534.344 427.856L669.424 607.945L548.922 539.787ZM544.386 404.221L499.163 378.237L538.291 416.023L544.386 404.221ZM537.812 416.933L533.535 425.098L500.032 380.415L537.812 416.933ZM726.227 507.497L650.789 411.336L547.124 404.57L726.227 507.497ZM544.876 403.341L494.017 374.069L532.985 426.087L444.288 597.981L441.011 246.848L602.978 290.491L544.876 403.341ZM528.889 114.999L345.039 134.767L440.461 245.379L528.889 114.999ZM439.552 245.848L176.627 289.411L343.88 134.987L439.552 245.848ZM262.027 391.179L175.498 291.45L166.735 478.275L262.027 391.179ZM262.687 391.938L292.592 426.407L252.625 504.619L164.397 527.495L166.676 479.704L262.687 391.938ZM94.5446 545.663L163.418 527.754L165.626 480.703L94.5446 545.663ZM94.1949 546.743L163.368 528.814L161.07 577.784L94.1949 546.743ZM159.591 609.384L161.02 578.833L95.274 548.342L159.591 609.384ZM164.377 528.544L252.765 505.628L318.072 650.539L162.099 578.223L164.377 528.544ZM293.302 427.236L253.554 505.068L318.711 649.599L336.097 476.566L293.302 427.236ZM443.399 600.739V600.849L443.779 600.629L443.998 600.879L444.108 600.649L504.359 628.952L322.578 650.599L443.399 600.739ZM669.693 609.254L548.693 540.726L506.937 628.612L669.693 609.254ZM534.244 425.997L538.581 417.592L653.217 528.284L670.253 607.435L534.244 425.997ZM539.001 416.653L653.817 527.475L726.847 508.946L545.215 404.66L539.001 416.653ZM727.156 509.895L671.422 608.175L654.246 528.394L727.156 509.895ZM653.107 412.625L728.365 508.566L729.185 508.316L728.975 508.686L832.29 521.958L653.107 412.625ZM651.428 410.427L605.056 292.24L831.291 520.179L651.428 410.427ZM1037.06 299.006L925.914 235.045L916.042 394.067L984.116 340.6L984.446 339.77L984.606 340.21L1037.06 299.006ZM963.673 391.179L935.636 460.596L916.132 395.556L963.673 391.179ZM983.367 342.419L917.111 394.457L964.092 390.139L983.367 342.419ZM964.792 391.079L986.164 389.08L990.85 491.697L936.205 461.875L964.792 391.079ZM984.056 343.368L965.211 390.029L986.114 388.111L984.056 343.368ZM857.45 443.466L607.824 292.09L914.453 395.306L857.45 443.466ZM935.046 462.075L915.222 395.986L858.169 444.186L908.068 528.844L935.046 462.075ZM935.506 463.604L1003.75 691.124L908.718 529.933L935.506 463.604ZM1004.6 690.504L990.94 492.856L936.405 463.124L1004.6 690.504ZM991.91 492.346L987.163 389.02L1000.37 387.801L1064.81 570.338L991.91 492.346ZM985.125 344.627L987.124 388.021L1000.02 386.831L985.125 344.627ZM984.965 341.17L1038 299.505L1163.63 371.771L1001.02 386.761L984.965 341.17ZM1164.72 371.151L1153.36 197.258L1038.82 298.736L1164.72 371.151ZM1533.31 212.249L1366.98 250.346L1784.34 80.6602L1533.31 212.249ZM1359.93 321.941L1361.57 402.752L1457.54 301.044L1359.93 321.941ZM1359.94 320.922L1361.57 253.044L1457.49 300.015L1359.94 320.922ZM1275.53 356.92L1358.94 321.212L1360.57 253.684L1275.53 356.92ZM1359.1 252.884L1166.13 371.001L1200.1 264.167L1359.1 252.884ZM1154.38 198.028L1165.58 369.452L1199.17 263.767L1154.38 198.028ZM1358.86 254.183L1273.62 357.659L1167.56 371.331L1358.86 254.183ZM1360.62 403.101L1358.99 322.241L1275.04 358.129L1360.62 403.101ZM1361.6 404.191L1456.39 303.733L1339.67 502.4L1361.6 404.191ZM1532.11 213.558L1362.6 252.384L1458.9 299.555L1532.11 213.558ZM1199.99 263.178L1154.96 197.068L1358.12 251.915L1199.99 263.178ZM1272.14 359.388L1272.64 358.779L1166.52 372.47L1338.19 504.509L1360.52 404.191L1273.81 358.679L1272.14 359.388ZM1339.73 505.688L1446.28 490.078L1582.78 692.653L1339.73 505.688ZM1339.45 504.729L1446.05 489.098L1458.36 302.224L1339.45 504.729ZM1545.76 242.73L1493.8 407.629L1459.58 300.325L1545.76 242.73ZM1496.96 407.419L1569.61 376.188L1638.3 293.169L1496.96 407.419ZM1494.8 407.888L1546.96 242.241L1640.95 289.821L1494.8 407.888ZM1548.35 578.653L1569.34 377.397L1494.4 409.597L1548.35 578.653ZM1570.4 376.808L1640.63 291.99L1549.6 576.344L1570.4 376.808ZM1763.91 205.873L1642.34 289.971L1550.51 576.784L1763.91 205.873ZM1641.87 289.082L1548.29 241.761L1763.36 205.014L1641.87 289.082ZM1546.33 241.051H1546.53L1785.68 81.09L1533.82 213.119L1461.77 297.756L1546.33 241.181V241.051ZM1152.13 197.008L1037.87 298.296L926.903 234.475L1152.13 197.008ZM605.736 290.331L914.993 394.427L924.905 234.855L605.736 290.331ZM602.848 289.431L441.321 245.898L529.668 115.329L602.848 289.431ZM165.696 479.314L174.499 291.43L25.5811 434.402L92.836 545.903L165.696 479.314ZM57.5949 270.643L-65.7941 199.087L85.7218 147.239L132.494 245.009L57.5949 270.643ZM85.2622 146.34L16.3187 2.17866L-66.1038 198.138L85.2622 146.34ZM14.2204 4.59716L-66.9731 197.738L-90.9534 146.68L14.2204 4.59716ZM56.2859 271.033L-66.7133 199.687L-124.116 336.073L-16.5744 473.488L24.3121 434.232L-51.9054 308.01L-51.3159 307.81L56.2859 271.033ZM-123.876 577.904L-18.3929 476.616L-81.9608 602.778L-123.876 577.904ZM55.8263 571.168L-81.3813 603.887L-123.467 693.482L55.8263 571.168ZM155.635 693.572L59.0737 570.158L92.5662 547.312V547.382L92.6761 547.282L159.481 610.693L155.635 693.572ZM161.999 579.313L160.551 610.294L249.188 694.472L659.052 611.603L506.467 629.792L506.367 629.991L506.048 629.841L319.79 652.038L320.06 652.637L318.971 652.138H318.491V651.878L161.999 579.313ZM729.085 509.766L833.999 523.207L838.285 693.032L729.085 509.766ZM834.998 522.328V522.558L888.734 576.644L907.569 530.063L857.12 444.496L606.925 292.759L834.738 522.328H834.998ZM908.198 531.102L1002.9 691.753L889.503 577.444L908.198 531.102ZM1065.43 572.527L991.969 493.925L1005.75 693.052L1065.43 572.527ZM1001.36 387.761L1164.41 372.77L1066.1 571.148L1001.36 387.761ZM1337.88 505.518L1166.02 373.32L1227.44 693.572L1337.88 505.518ZM1228.46 693.832L1338.37 506.677L1371.03 629.682L1228.46 693.832ZM1459.34 302.813L1447.06 489.418L1583.38 691.733L1548.48 582.311L1547.87 583.37L1548.03 581.811L1547.83 581.881L1548.09 581.082L1493.53 409.987L1493.03 410.207L1493.31 409.317L1459.34 302.813ZM1692.79 530.343L1549.7 580.192L1764.25 207.232L1692.79 530.343ZM1548.91 240.702L1765.06 203.724L1792.97 77.4122L1548.91 240.702Z" fill="#E76ECE"/>
</g>
<path d="M663.668 162.77C665.423 162.77 667.005 161.712 667.676 160.09C668.346 158.468 667.974 156.601 666.731 155.362C665.489 154.122 663.622 153.754 662.002 154.428C660.382 155.102 659.328 156.687 659.332 158.442C659.332 159.592 659.789 160.694 660.603 161.506C661.416 162.318 662.519 162.772 663.668 162.77Z" fill="#E76ECE"/>
<ellipse cx="682.323" cy="194.07" rx="9.61213" ry="9.61407" fill="#E76ECE"/>
<ellipse cx="946.776" cy="214.868" rx="4.3964" ry="4.39729" fill="#E76ECE"/>
<path d="M897.906 190.203C899.126 190.203 900.115 189.214 900.115 187.994C900.115 186.774 899.126 185.785 897.906 185.785C896.687 185.785 895.698 186.774 895.698 187.994C895.698 189.214 896.687 190.203 897.906 190.203Z" fill="#E76ECE"/>
<path d="M985.465 186.715C988.831 186.715 991.56 183.985 991.56 180.619C991.56 177.252 988.831 174.522 985.465 174.522C982.099 174.522 979.37 177.252 979.37 180.619C979.37 183.985 982.099 186.715 985.465 186.715Z" fill="#E76ECE"/>
<ellipse cx="1011.25" cy="219.325" rx="4.45635" ry="4.45725" fill="#E76ECE"/>
<path d="M200.808 87.9458C203.371 87.9498 205.684 86.4087 206.667 84.0414C207.651 81.674 207.112 78.9471 205.301 77.133C203.49 75.3188 200.764 74.7749 198.396 75.755C196.027 76.7351 194.483 79.0461 194.483 81.6097C194.483 85.1051 197.313 87.9403 200.808 87.9458Z" fill="#E76ECE"/>
<path d="M273.748 96.6304C278.524 96.6083 282.382 92.7234 282.371 87.9458C282.36 83.1683 278.484 79.3012 273.708 79.3011C268.931 79.3011 265.056 83.1682 265.045 87.9457C265.04 90.2541 265.955 92.4693 267.589 94.0997C269.223 95.7301 271.44 96.641 273.748 96.6304Z" fill="#E76ECE"/>
<ellipse cx="279.034" cy="43.9828" rx="5.32564" ry="5.32671" fill="#E76ECE"/>
<ellipse cx="1246.19" cy="176.291" rx="4.32646" ry="4.32733" fill="#E76ECE"/>
<ellipse cx="1366.93" cy="165.748" rx="7.99345" ry="7.99507" fill="#E76ECE"/>
<path fill-rule="evenodd" clip-rule="evenodd" d="M1604.22 153.785C1603.58 154.823 1602.44 155.452 1601.22 155.444L1601.23 155.414C1599.49 155.416 1598 154.147 1597.73 152.425C1597.46 150.703 1598.49 149.041 1600.15 148.508C1601.81 147.975 1603.61 148.73 1604.39 150.287L1794.93 85.0875L1784.73 101.078C1786.17 102.231 1786.77 104.142 1786.25 105.914C1785.73 107.685 1784.19 108.965 1782.35 109.153L1776.8 224.581C1778.83 225.062 1780.15 227.03 1779.83 229.095C1779.5 231.161 1777.64 232.626 1775.55 232.456C1773.47 232.287 1771.87 230.54 1771.88 228.449C1771.89 228.167 1771.92 227.886 1771.97 227.61L1604.22 153.785ZM1631.91 152.706L1604.71 152.446V152.456C1604.66 152.606 1604.66 152.736 1604.66 152.906L1765.72 223.732L1639.76 154.775C1638.73 156.273 1636.87 156.963 1635.11 156.499C1633.35 156.036 1632.07 154.519 1631.91 152.706ZM1640.47 152.936L1731.86 156.993C1731.93 158.88 1732.94 160.609 1734.54 161.61C1736.14 162.611 1738.13 162.753 1739.86 161.99L1773.52 225.201C1773.09 225.51 1772.73 225.896 1772.45 226.34L1640.22 153.905C1640.34 153.583 1640.43 153.248 1640.47 152.906V152.936ZM1740.7 161.46L1774.44 224.721V224.731C1774.89 224.56 1775.36 224.468 1775.84 224.462L1781.38 109.143C1780.63 109.067 1779.92 108.806 1779.29 108.383L1741.7 152.746C1742.87 153.97 1743.44 155.653 1743.24 157.338C1743.05 159.023 1742.12 160.534 1740.7 161.46ZM1778.52 107.734L1740.91 152.106C1739.94 151.391 1738.76 151.005 1737.56 151.007C1734.68 151.01 1732.26 153.151 1731.9 156.004L1640.49 151.906C1640.47 151.722 1640.45 151.538 1640.42 151.357L1777.6 106.254C1777.8 106.803 1778.12 107.305 1778.52 107.734ZM1783.84 100.498L1792.5 86.9464L1604.71 151.227V151.417L1631.92 151.676C1632.17 149.785 1633.64 148.287 1635.53 147.996C1637.41 147.705 1639.27 148.691 1640.08 150.417L1777.33 105.285C1777.29 105.054 1777.26 104.82 1777.26 104.585C1777.26 103.369 1777.74 102.202 1778.6 101.342C1779.46 100.482 1780.63 99.9983 1781.84 99.9983C1782.54 100.007 1783.22 100.178 1783.84 100.498Z" fill="#E76ECE"/>
<ellipse cx="1638.19" cy="101.168" rx="3.12744" ry="3.12807" fill="#E76ECE"/>
<ellipse cx="1683.17" cy="102.447" rx="5.55545" ry="5.55657" fill="#E76ECE"/>
<ellipse cx="1606.74" cy="126.902" rx="2.62785" ry="2.62838" fill="#E76ECE"/>
<path d="M1302.64 161.9C1306.32 161.9 1309.3 158.916 1309.3 155.234C1309.3 151.553 1306.32 148.568 1302.64 148.568C1298.95 148.568 1295.97 151.553 1295.97 155.234C1295.97 158.916 1298.95 161.9 1302.64 161.9Z" fill="#E76ECE"/>
<path d="M1472.86 479.924C1472.86 477.766 1471.11 476.016 1468.95 476.016C1466.79 476.016 1465.04 477.766 1465.04 479.924C1465.04 482.082 1466.79 483.832 1468.95 483.832C1471.1 483.826 1472.85 482.08 1472.86 479.924Z" fill="#E76ECE"/>
<path d="M1497.18 495.304C1497.18 494.418 1496.65 493.617 1495.83 493.275C1495.01 492.933 1494.07 493.118 1493.44 493.743C1492.82 494.368 1492.63 495.311 1492.96 496.13C1493.3 496.949 1494.1 497.483 1494.99 497.483C1496.19 497.483 1497.17 496.509 1497.18 495.304Z" fill="#E76ECE"/>
<ellipse cx="1499.36" cy="473.498" rx="1.18903" ry="1.18927" fill="#E76ECE"/>
<path d="M1369.39 119.236C1370.75 119.236 1371.85 118.136 1371.85 116.778C1371.85 115.42 1370.75 114.319 1369.39 114.319C1368.03 114.319 1366.93 115.42 1366.93 116.778C1366.93 117.43 1367.19 118.055 1367.65 118.516C1368.11 118.977 1368.74 119.236 1369.39 119.236Z" fill="#E76ECE"/>
<ellipse cx="1347.06" cy="214.867" rx="2.45799" ry="2.45848" fill="#E76ECE"/>
<path d="M1414.39 185.546C1415.39 185.55 1416.3 184.951 1416.68 184.029C1417.07 183.107 1416.86 182.043 1416.15 181.335C1415.45 180.627 1414.38 180.414 1413.46 180.796C1412.54 181.177 1411.94 182.078 1411.94 183.077C1411.94 184.436 1413.03 185.54 1414.39 185.546Z" fill="#E76ECE"/>
<ellipse cx="441.72" cy="139.894" rx="7.07421" ry="7.07563" fill="#E76ECE"/>
<path d="M309.369 172.893C311.3 172.893 312.866 171.327 312.866 169.396C312.866 167.464 311.3 165.898 309.369 165.898C307.437 165.898 305.872 167.464 305.872 169.396C305.872 171.327 307.437 172.893 309.369 172.893Z" fill="#E76ECE"/>
<ellipse cx="335.897" cy="150.417" rx="4.83604" ry="4.83702" fill="#E76ECE"/>
<ellipse cx="320.16" cy="190.892" rx="1.71859" ry="1.71894" fill="#E76ECE"/>
<path d="M476.192 114.28C478.311 114.28 480.029 112.561 480.029 110.442C480.029 108.322 478.311 106.604 476.192 106.604C474.073 106.604 472.355 108.322 472.355 110.442C472.355 111.46 472.759 112.436 473.479 113.155C474.198 113.875 475.174 114.28 476.192 114.28Z" fill="#E76ECE"/>
<ellipse cx="498.84" cy="139.232" rx="8.10476" ry="8.10361" transform="rotate(-67.36 498.84 139.232)" fill="#E76ECE"/>
<path d="M243.503 425.807C241.959 425.807 240.567 426.738 239.976 428.164C239.385 429.591 239.712 431.233 240.804 432.325C241.895 433.416 243.537 433.743 244.963 433.152C246.389 432.561 247.319 431.169 247.319 429.625C247.319 427.517 245.611 425.807 243.503 425.807Z" fill="#E76ECE"/>
<path d="M455.02 376.208C452.912 376.208 451.203 377.917 451.203 380.026C451.203 382.134 452.912 383.843 455.02 383.843C457.128 383.843 458.836 382.134 458.836 380.026C458.836 377.917 457.128 376.208 455.02 376.208Z" fill="#E76ECE"/>
<path d="M266.754 419.341C265.584 419.341 264.635 420.29 264.635 421.46C264.635 422.63 265.584 423.579 266.754 423.579C267.923 423.579 268.872 422.63 268.872 421.46C268.872 420.29 267.923 419.341 266.754 419.341Z" fill="#E76ECE"/>
<path d="M243.492 399.554C243.496 397.366 242.182 395.391 240.162 394.551C238.143 393.711 235.816 394.171 234.268 395.717C232.72 397.262 232.256 399.589 233.092 401.61C233.928 403.632 235.9 404.95 238.087 404.95C241.068 404.95 243.487 402.536 243.492 399.554Z" fill="#E76ECE"/>
<path d="M475.472 388.271C474.369 388.271 473.474 389.165 473.474 390.269C473.474 391.373 474.369 392.268 475.472 392.268C476.576 392.268 477.471 391.373 477.471 390.269C477.471 389.165 476.576 388.271 475.472 388.271Z" fill="#E76ECE"/>
<ellipse cx="4.11781" cy="87.9631" rx="6.66454" ry="6.66589" transform="rotate(-0.3 4.11781 87.9631)" fill="#E76ECE"/>
<ellipse cx="61.2613" cy="104.968" rx="10.3216" ry="10.3235" transform="rotate(-12.77 61.2613 104.968)" fill="#E76ECE"/>
<path d="M10.7732 59.963C12.2573 59.9671 13.5975 59.076 14.1682 57.7058C14.7389 56.3356 14.4277 54.7564 13.3797 53.7053C12.3317 52.6543 10.7537 52.3387 9.38223 52.9058C8.01074 53.4729 7.11622 54.8109 7.11621 56.2953C7.1162 58.317 8.75189 59.9575 10.7732 59.963Z" fill="#E76ECE"/>
<path fill-rule="evenodd" clip-rule="evenodd" d="M51.7296 358.469C51.7296 360.5 50.0834 362.147 48.0527 362.147C46.2402 362.145 44.7038 360.813 44.4456 359.019L-69.8208 363.236L124.81 286.014L50.9902 356.28C51.4686 356.91 51.7282 357.678 51.7296 358.469ZM50.2908 355.551L120.393 288.822L-64.0555 361.997L44.4356 357.999C44.5861 356.691 45.4314 355.567 46.6459 355.059C47.8603 354.551 49.2543 354.739 50.2908 355.551Z" fill="#E76ECE"/>
<path fill-rule="evenodd" clip-rule="evenodd" d="M141.186 526.245L132.923 284.494V283.315L54.1477 365.055C53.5649 364.64 52.8645 364.423 52.1493 364.435C50.4557 364.434 49.0219 365.685 48.7921 367.363L-40.4548 369.202C-40.7269 367.206 -42.3264 365.653 -44.3298 365.44C-46.3332 365.228 -48.2227 366.411 -48.9072 368.306C-49.5917 370.201 -48.8943 372.319 -47.2177 373.436C-45.5412 374.553 -43.3187 374.382 -41.8337 373.02L136.36 528.544C135.657 529.492 135.279 530.642 135.281 531.822C135.275 534.874 137.715 537.368 140.766 537.429C143.817 537.489 146.353 535.094 146.468 532.044C146.583 528.994 144.233 526.414 141.186 526.245ZM83.2244 416.153C82.5355 416.156 81.8558 416.313 81.2355 416.613L54.2576 370.471C55.0507 369.829 55.513 368.864 55.5166 367.843C55.5166 367.08 55.2557 366.339 54.7772 365.744L131.125 286.533L84.6727 416.453C84.2091 416.276 83.7201 416.175 83.2244 416.153ZM53.4583 370.991C53.0507 371.164 52.6121 371.253 52.1693 371.251H52.1593C50.4836 371.242 49.0617 370.019 48.8021 368.363L-40.4248 370.202C-40.4421 370.455 -40.4856 370.706 -40.5547 370.951L78.9674 419.061C79.2792 418.303 79.7859 417.641 80.4362 417.143L53.4583 370.991ZM-40.9144 371.871L78.6576 420.021C78.6107 420.282 78.584 420.546 78.5777 420.81C78.5746 422.335 79.3209 423.764 80.574 424.632C81.827 425.5 83.4266 425.697 84.8526 425.158L137.879 527.095C137.572 527.29 137.284 527.514 137.02 527.764L-41.1542 372.28C-41.0643 372.15 -40.9944 372.01 -40.9244 371.871H-40.9144ZM138.748 526.655C139.208 526.462 139.692 526.334 140.187 526.275L132.064 287.143L85.6919 416.843C87.0632 417.672 87.9093 419.15 87.9297 420.753C87.95 422.355 87.1416 423.854 85.7918 424.718L138.748 526.655Z" fill="#E76ECE"/>
<path fill-rule="evenodd" clip-rule="evenodd" d="M-28.7745 322.451C-26.7736 322.446 -25.153 320.825 -25.1475 318.823C-25.155 318.485 -25.2053 318.149 -25.2974 317.824L63.0703 279.058C63.9828 280.538 65.819 281.159 67.4426 280.537C69.0661 279.915 70.0176 278.226 69.7083 276.515C69.3989 274.804 67.9162 273.555 66.1777 273.541L59.6231 223.862C60.7874 223.45 61.4572 222.23 61.1796 221.026C60.9021 219.823 59.7655 219.019 58.5386 219.159C57.3117 219.299 56.3852 220.338 56.3857 221.573C56.3804 221.676 56.3804 221.78 56.3857 221.883L-13.4171 246.398C-14.0788 245.169 -15.4769 244.529 -16.8394 244.832C-18.202 245.136 -19.1968 246.308 -19.2746 247.702C-19.3525 249.096 -18.4943 250.372 -17.174 250.825L-28.6646 315.235H-28.8045C-30.731 315.337 -32.2412 316.929 -32.2412 318.858C-32.2412 320.788 -30.731 322.38 -28.8045 322.481L-28.7745 322.451ZM-25.697 316.934C-25.7864 316.782 -25.8901 316.638 -26.0068 316.505L17.9572 267.625C19.8035 269.104 22.233 269.64 24.53 269.074C26.827 268.508 28.7297 266.904 29.6776 264.737L62.5607 276.449C62.5122 276.689 62.4887 276.934 62.4907 277.179C62.4915 277.518 62.542 277.854 62.6406 278.178L-25.697 316.934ZM58.6039 223.972C58.2516 223.939 57.9107 223.83 57.6047 223.652L28.1788 256.372C29.5824 257.793 30.3687 259.711 30.3671 261.708C30.3665 262.429 30.2622 263.146 30.0573 263.837L62.9204 275.51C63.3823 274.622 64.1934 273.966 65.1586 273.701L58.6039 223.972ZM56.7454 222.812C56.7762 222.873 56.8131 222.93 56.8553 222.982L27.4295 255.662C25.5681 254.205 23.1358 253.696 20.8464 254.283C18.5569 254.87 16.6699 256.487 15.739 258.66L-13.0174 248.427C-13.0022 248.24 -13.0022 248.053 -13.0174 247.867C-13.0022 247.684 -13.0022 247.5 -13.0174 247.317L56.7454 222.812ZM-16.1449 250.985H-16.1948L-27.6354 315.345C-27.313 315.444 -27.0067 315.588 -26.7262 315.775L17.2378 266.905C15.861 265.491 15.0934 263.593 15.0996 261.619C15.1043 260.943 15.1984 260.271 15.3793 259.62L-13.4271 249.356C-13.9641 250.358 -15.0082 250.984 -16.1449 250.985Z" fill="#E76ECE"/>
<path fill-rule="evenodd" clip-rule="evenodd" d="M167.065 624.854C165.942 624.847 164.863 625.29 164.068 626.084L-61.3677 447.124C-59.7616 444.733 -59.8535 441.585 -61.5963 439.292C-63.339 436.999 -66.3469 436.067 -69.0801 436.975C-71.8133 437.883 -73.6669 440.429 -73.692 443.309C-73.7171 446.19 -71.9082 448.767 -69.1912 449.722L-107.27 588.847C-107.517 588.799 -107.768 588.772 -108.019 588.767C-110.542 588.883 -112.528 590.963 -112.528 593.489C-112.528 596.015 -110.542 598.095 -108.019 598.211C-106.992 598.2 -105.998 597.848 -105.192 597.211L-40.0851 666.889C-42.8012 669.733 -43.2819 674.042 -41.2592 677.415C-39.2365 680.787 -35.2094 682.392 -31.4219 681.335C-27.6344 680.277 -25.0208 676.818 -25.0374 672.885C-25.0422 672.426 -25.0823 671.968 -25.1573 671.516L163.078 630.421C163.785 632.453 165.906 633.63 168.004 633.155C170.103 632.679 171.509 630.703 171.271 628.564C171.033 626.426 169.227 624.807 167.075 624.804L167.065 624.854ZM163.478 626.853C163.247 627.219 163.078 627.621 162.979 628.042L-43.6122 601.319L-65.4843 449.912C-64.1454 449.617 -62.9286 448.92 -61.9971 447.914L163.478 626.853ZM-66.9431 450.092C-67.3761 450.095 -67.8082 450.051 -68.232 449.962L-106.311 589.146C-104.503 589.845 -103.311 591.585 -103.313 593.524V593.634L-44.6414 601.189L-66.4735 450.092H-66.9431ZM-39.3557 666.249L-104.462 596.562C-103.975 595.985 -103.632 595.3 -103.463 594.563L-44.5115 602.198L-35.5188 664.36C-36.9333 664.654 -38.2521 665.296 -39.3557 666.229V666.249ZM-33.7703 664.23C-29.8534 664.23 -26.417 666.842 -25.3671 670.616L162.889 629.452C162.862 629.32 162.845 629.186 162.839 629.052L-43.5123 602.328L-34.5196 664.23C-34.2701 664.215 -34.0198 664.215 -33.7703 664.23Z" fill="#E76ECE"/>
<path fill-rule="evenodd" clip-rule="evenodd" d="M548.422 656.395C548.241 656.402 548.062 656.419 547.883 656.445L533.035 598.401C535.302 597.589 536.721 595.332 536.47 592.936C536.22 590.541 534.365 588.627 531.979 588.301C529.593 587.976 527.293 589.324 526.411 591.565L373.216 547.312C373.526 545.496 372.79 543.659 371.311 542.559C369.833 541.459 367.862 541.283 366.212 542.103C364.562 542.923 363.511 544.6 363.494 546.443V546.813L273.098 563.103C272.621 561.788 271.258 561.017 269.886 561.286C268.514 561.555 267.542 562.783 267.595 564.18C267.649 565.577 268.712 566.727 270.101 566.89L272.319 617.389C271.032 617.863 270.188 619.102 270.22 620.473C270.251 621.845 271.15 623.044 272.458 623.458C273.765 623.872 275.191 623.409 276.006 622.306L480.129 695.401L480.329 695.471L544.956 662.851C546.055 664.493 548.161 665.13 549.987 664.374C551.812 663.618 552.851 661.679 552.469 659.74C552.087 657.804 550.394 656.405 548.422 656.395ZM548.422 656.395L548.413 656.395H548.423L548.422 656.395ZM546.914 656.685C546.235 656.947 545.641 657.389 545.195 657.964L480.578 618.049C481.306 616.567 481.427 614.861 480.918 613.292L526.611 595.812C527.487 597.59 529.295 598.716 531.277 598.721C531.548 598.714 531.819 598.688 532.086 598.641L546.914 656.685ZM526.031 593.524C526.031 593.188 526.064 592.853 526.131 592.524L372.946 548.322C372.197 550.175 370.399 551.389 368.4 551.39C368.209 551.38 368.019 551.36 367.831 551.33L362.205 576.514C363.665 577.118 364.616 578.543 364.613 580.122C364.607 580.296 364.59 580.47 364.563 580.642L468.968 612.752C469.937 610.451 472.157 608.925 474.651 608.844C477.146 608.762 479.461 610.14 480.578 612.372L526.241 594.913C526.109 594.461 526.038 593.994 526.031 593.524ZM366.851 551.08L361.236 576.224C361.061 576.197 360.884 576.181 360.706 576.175C359.045 576.177 357.57 577.238 357.039 578.813L273.328 564.082L363.674 547.802C364.125 549.354 365.315 550.581 366.851 551.08ZM273.098 565.061C272.775 565.958 272.025 566.633 271.1 566.86L273.328 617.179H273.438C274.535 617.181 275.556 617.743 276.146 618.668L357 581.251C356.872 580.875 356.804 580.48 356.8 580.082C356.794 579.982 356.794 579.882 356.8 579.782L273.098 565.061ZM276.535 619.618L276.543 619.614C276.713 620.203 276.69 620.832 276.475 621.407L479.739 694.202L474.743 621.656C471.228 621.624 468.394 618.767 468.388 615.25C468.393 614.728 468.46 614.208 468.588 613.701L364.314 581.601C363.756 582.946 362.496 583.868 361.046 583.992C359.595 584.117 358.197 583.422 357.419 582.191L276.543 619.614L276.535 619.588V619.618ZM475.762 621.606L480.758 694.172L544.526 661.982C544.357 661.531 544.269 661.054 544.266 660.572C544.271 659.972 544.404 659.379 544.656 658.834L480.059 618.948C479.054 620.388 477.499 621.35 475.762 621.606Z" fill="#E76ECE"/>
<path fill-rule="evenodd" clip-rule="evenodd" d="M277.365 681.66H277.645L277.695 681.64C279.292 681.64 280.732 682.602 281.342 684.079C281.952 685.555 281.613 687.254 280.482 688.382C279.351 689.51 277.652 689.846 276.178 689.231C274.703 688.617 273.744 687.175 273.748 685.577C273.739 684.964 273.876 684.358 274.148 683.808L167.825 610.973C166.124 613.052 163.215 613.684 160.805 612.498C158.395 611.312 157.121 608.621 157.73 606.004C158.34 603.388 160.673 601.537 163.359 601.539C163.858 601.539 164.356 601.606 164.837 601.739L175.778 571.358C174.332 570.577 173.643 568.878 174.138 567.31C174.632 565.742 176.17 564.746 177.803 564.936C179.436 565.127 180.704 566.45 180.824 568.09L251.386 573.217C251.776 571.32 253.468 569.975 255.403 570.024C257.338 570.073 258.96 571.502 259.252 573.416C259.545 575.33 258.424 577.178 256.592 577.804L277.365 681.66ZM275.836 682.109C276.013 682.018 276.197 681.941 276.386 681.879L255.613 578.024C255.516 578.029 255.42 578.029 255.323 578.024C254.951 578.018 254.581 577.961 254.224 577.854L236.099 620.287C236.987 620.826 237.57 621.751 237.674 622.784C237.778 623.817 237.391 624.839 236.628 625.544L275.836 682.109ZM176.708 571.707C176.938 571.756 177.172 571.779 177.407 571.777C179.022 571.781 180.421 570.657 180.764 569.079L251.326 574.216C251.4 575.567 252.152 576.789 253.325 577.464L235.18 619.898C233.547 619.437 231.835 620.307 231.243 621.896L169.124 608.055C169.139 607.802 169.139 607.548 169.124 607.295C169.122 605.042 167.812 602.995 165.767 602.049L176.708 571.707ZM168.914 609.054C168.786 609.435 168.622 609.804 168.424 610.154L274.737 682.989L275.047 682.689L235.839 626.114C234.805 626.627 233.579 626.567 232.599 625.956C231.62 625.345 231.027 624.27 231.033 623.116C231.028 623.043 231.028 622.969 231.033 622.896L168.914 609.054Z" fill="#E76ECE"/>
<path d="M123.181 175.292C123.849 175.292 124.39 174.75 124.39 174.083C124.39 173.415 123.849 172.873 123.181 172.873C122.513 172.873 121.972 173.415 121.972 174.083C121.972 174.75 122.513 175.292 123.181 175.292Z" fill="#E76ECE"/>
<ellipse cx="152.037" cy="189.443" rx="3.20737" ry="3.20802" fill="#E76ECE"/>
<ellipse cx="152.367" cy="166.917" rx="4.45635" ry="4.45725" fill="#E76ECE"/>
<path d="M123.181 192.731C123.181 194.133 124.317 195.269 125.719 195.269C127.121 195.269 128.257 194.133 128.257 192.731C128.257 191.329 127.121 190.193 125.719 190.193C124.32 190.198 123.187 191.331 123.181 192.731Z" fill="#E76ECE"/>
<path fill-rule="evenodd" clip-rule="evenodd" d="M1730.41 528.084C1730.49 527.756 1730.53 527.421 1730.52 527.085C1730.53 525.915 1730.06 524.793 1729.24 523.966C1728.41 523.138 1727.29 522.675 1726.12 522.678H1725.78L1718.78 487.03C1720.2 486.514 1721.07 485.074 1720.86 483.577C1720.65 482.08 1719.42 480.935 1717.91 480.833C1716.4 480.73 1715.03 481.697 1714.62 483.152L1392.53 448.553V448.443C1392.53 447.197 1392.04 446.001 1391.16 445.119C1390.28 444.238 1389.08 443.744 1387.84 443.746C1387.4 443.751 1386.96 443.818 1386.55 443.946L1357.39 378.347C1358.2 377.732 1358.48 376.635 1358.05 375.71C1357.62 374.785 1356.61 374.281 1355.62 374.499C1354.62 374.718 1353.91 375.599 1353.91 376.618C1353.91 376.92 1353.98 377.219 1354.09 377.497L1302.97 416.023C1302.54 415.63 1301.97 415.413 1301.38 415.414C1300.2 415.409 1299.18 416.248 1298.97 417.407C1298.75 418.566 1299.4 419.713 1300.5 420.132C1301.6 420.55 1302.85 420.121 1303.45 419.112L1383.26 447.404C1383.19 447.732 1383.15 448.067 1383.14 448.403C1383.12 450.796 1384.9 452.822 1387.27 453.105C1389.65 453.387 1391.85 451.834 1392.39 449.503L1714.57 484.211C1714.62 485.933 1716.03 487.3 1717.75 487.299H1717.87L1724.87 522.947C1723.43 523.402 1722.33 524.56 1721.94 526.016L1533.98 499.262V498.942C1533.85 495.821 1531.28 493.357 1528.16 493.357C1525.03 493.357 1522.46 495.821 1522.33 498.942C1522.29 501.817 1524.39 504.278 1527.23 504.699L1520 631.56V525.436C1521.75 525.097 1522.98 523.503 1522.86 521.718C1522.87 520.039 1521.79 518.548 1520.19 518.032C1518.59 517.516 1516.85 518.093 1515.87 519.46L1243.69 397.665C1244.46 395.43 1244.1 392.961 1242.73 391.039C1241.35 389.118 1239.13 387.981 1236.77 387.991C1236.39 387.993 1236.01 388.027 1235.64 388.091L1208.55 272.302C1208.96 272.177 1209.36 272.027 1209.75 271.852L1234.34 318.803C1232.86 319.94 1232.27 321.896 1232.87 323.664C1233.47 325.433 1235.13 326.622 1237 326.619H1237.2L1245.41 361.947C1244.02 362.482 1243.12 363.844 1243.17 365.336C1243.22 366.829 1244.22 368.123 1245.65 368.558C1247.08 368.993 1248.62 368.473 1249.5 367.263L1298.69 393.627C1298.49 394.117 1298.39 394.639 1298.39 395.166C1298.39 397.512 1300.29 399.414 1302.64 399.414C1304.98 399.414 1306.88 397.512 1306.88 395.166C1306.88 394.436 1306.69 393.72 1306.32 393.088L1358.86 354.531C1359.71 355.312 1360.97 355.433 1361.96 354.827C1362.94 354.221 1363.4 353.037 1363.08 351.927C1362.77 350.817 1361.75 350.052 1360.6 350.054C1360.52 350.049 1360.44 350.049 1360.37 350.054L1346.38 302.933C1348.05 302.208 1349.09 300.508 1348.98 298.686C1348.86 296.864 1347.61 295.311 1345.86 294.805C1344.11 294.298 1342.22 294.947 1341.15 296.427L1282.06 265.716C1282.33 265.063 1282.46 264.363 1282.46 263.657C1282.46 263.209 1282.4 262.762 1282.29 262.328L1365.98 232.687C1366.97 234.887 1369.16 236.303 1371.57 236.304H1371.68L1378.98 308.77C1376.74 309.25 1375.21 311.344 1375.44 313.63C1375.67 315.915 1377.58 317.662 1379.88 317.684L1389.14 409.557C1385.84 410.157 1383.49 413.092 1383.61 416.445C1383.73 419.797 1386.3 422.549 1389.64 422.903C1392.97 423.256 1396.06 421.104 1396.89 417.852L1542.54 443.556V444.126C1542.61 447.147 1544.87 449.664 1547.87 450.051C1550.86 450.438 1553.69 448.579 1554.53 445.675L1703.12 471.889V472.019C1703.11 473.874 1704.51 475.431 1706.36 475.611C1708.2 475.79 1709.88 474.533 1710.23 472.711C1710.57 470.889 1709.48 469.103 1707.69 468.591L1717.69 399.274H1717.77C1718.5 399.271 1719.21 399.071 1719.83 398.694L1794.42 499.322L1780.21 304.332C1782.73 303.918 1784.65 301.857 1784.89 299.317C1785.12 296.777 1783.61 294.398 1781.21 293.529L1794.2 244.799L1794.34 244.289L1746.38 234.935C1746.65 232.308 1745.06 229.846 1742.56 229C1740.06 228.154 1737.3 229.148 1735.92 231.397L1569.75 148.908C1571.22 145.486 1570.22 141.504 1567.32 139.174C1564.41 136.845 1560.31 136.741 1557.29 138.92C1554.27 141.099 1553.07 145.026 1554.37 148.518L1480.76 181.178C1479.23 178.279 1475.92 176.797 1472.75 177.588C1469.57 178.38 1467.34 181.24 1467.35 184.516C1467.35 185.342 1467.5 186.161 1467.79 186.935L1376.94 227.28C1375.6 224.824 1372.77 223.589 1370.06 224.279C1367.35 224.97 1365.45 227.41 1365.44 230.208C1365.45 230.738 1365.52 231.265 1365.65 231.777L1281.92 261.409C1281.45 260.398 1280.69 259.554 1279.72 258.99L1307.93 198.528C1308.47 198.726 1309.04 198.831 1309.62 198.837C1311.69 198.841 1313.55 197.6 1314.34 195.692C1315.14 193.784 1314.7 191.586 1313.24 190.123C1311.78 188.66 1309.59 188.222 1307.68 189.011C1305.77 189.801 1304.52 191.664 1304.52 193.731C1304.52 193.794 1304.52 193.857 1304.52 193.92L1094.59 222.553C1093.98 220.04 1091.6 218.371 1089.04 218.666C1086.47 218.962 1084.53 221.128 1084.51 223.712C1084.51 224.093 1084.56 224.472 1084.65 224.841L977.341 259.38C976.489 257.492 974.434 256.455 972.41 256.891C970.385 257.327 968.939 259.117 968.938 261.189C968.943 261.407 968.963 261.624 968.998 261.839L843.381 295.538C842.245 292.622 839.098 291.029 836.077 291.839C833.055 292.649 831.127 295.603 831.601 298.696L775.237 313.806C774.65 312.223 773.303 311.043 771.656 310.67C770.009 310.297 768.285 310.782 767.074 311.958L590.219 169.645C591.957 167.123 591.889 163.771 590.05 161.321C588.21 158.872 585.011 157.872 582.104 158.839C579.198 159.807 577.235 162.524 577.229 165.588C577.232 165.892 577.256 166.196 577.299 166.497L495.366 183.047C494.684 181.276 492.851 180.228 490.979 180.541C489.107 180.853 487.713 182.439 487.643 184.336V184.606L360.397 210.32C359.356 206.558 355.492 204.325 351.713 205.301C347.934 206.277 345.634 210.103 346.545 213.899C347.456 217.695 351.241 220.06 355.051 219.215L390.732 339.391C390.028 339.642 389.357 339.977 388.734 340.39L314.804 237.853C315.904 236.866 316.28 235.301 315.747 233.922C315.214 232.543 313.884 231.638 312.406 231.647C311.796 231.65 311.196 231.812 310.667 232.117L237.517 130.729C239.423 129.019 239.952 126.247 238.813 123.954C237.673 121.661 235.143 120.411 232.63 120.898C230.116 121.385 228.237 123.49 228.035 126.042L9.2144 141.233C8.66911 136.734 5.02036 133.247 0.501778 132.908C-4.0168 132.569 -8.1451 135.471 -9.35591 139.839C-10.5667 144.206 -8.5224 148.82 -4.47439 150.857L-92.2525 350.244C-93.5273 349.75 -94.8822 349.496 -96.2492 349.494C-101.538 349.491 -106.08 353.255 -107.058 358.454C-108.037 363.653 -105.174 368.811 -100.246 370.731L-125.166 444.926L-124.166 445.235L-99.1868 371.051C-98.2127 371.334 -97.2037 371.479 -96.1893 371.481C-92.9765 371.481 -89.9244 370.075 -87.8361 367.633L145.723 549.521C143.802 552.532 143.994 556.429 146.202 559.237C148.409 562.044 152.15 563.15 155.528 561.993C158.907 560.836 161.186 557.67 161.21 554.098L383.258 535.2C383.887 539.38 387.628 542.37 391.843 542.061C396.057 541.752 399.323 538.247 399.335 534.021C399.334 533.599 399.297 533.177 399.225 532.761L896.088 422.419C896.113 422.505 896.141 422.59 896.171 422.674C896.195 422.74 896.221 422.805 896.248 422.869L829.492 457.558C827.519 454.32 823.4 453.126 820.002 454.809C816.605 456.491 815.055 460.491 816.433 464.024L576.909 577.064C575.462 574.813 572.716 573.772 570.141 574.498C567.565 575.224 565.767 577.547 565.708 580.222C565.649 582.897 567.344 585.297 569.884 586.135C572.425 586.974 575.215 586.055 576.76 583.87C603.977 597.861 716.325 655.885 736.798 666.649C736.639 667.064 736.554 667.504 736.549 667.948C736.653 669.978 738.328 671.57 740.361 671.57C742.393 671.57 744.068 669.978 744.172 667.948C744.165 667.387 744.035 666.835 743.793 666.329C759.5 655.596 824.297 606.186 877.583 565.331C878.711 566.515 880.346 567.072 881.961 566.823C883.576 566.574 884.968 565.55 885.686 564.082L945.058 585.579C944.997 585.848 944.967 586.123 944.968 586.398C944.975 586.789 945.039 587.176 945.158 587.548L924.884 597.082C924.206 596.151 923.006 595.762 921.911 596.12C920.817 596.477 920.077 597.499 920.078 598.651C920.078 598.87 920.108 599.089 920.168 599.3L802.005 654.906C801.241 653.747 799.782 653.265 798.478 653.739C797.174 654.213 796.366 655.521 796.525 656.9C796.684 658.279 797.768 659.368 799.146 659.533C800.523 659.699 801.834 658.896 802.315 657.594L1008.96 695.321L1009.21 696.021L1080.84 584.739L1060.11 633.249C1059.87 633.186 1059.61 633.153 1059.35 633.149C1057.97 633.155 1056.75 634.074 1056.36 635.408C1055.98 636.742 1056.51 638.17 1057.69 638.916L1033.34 695.881L1097.51 665.21C1098.45 666.719 1100.14 667.595 1101.91 667.493C1103.69 667.391 1105.27 666.327 1106.03 664.72L1189.57 695.281L1190.06 695.821L1217.41 614.011C1217.67 614.072 1217.93 614.102 1218.19 614.101C1218.97 614.1 1219.72 613.847 1220.34 613.382L1297.28 695.401L1515.23 650.629C1516.03 652.328 1517.73 653.415 1519.61 653.417C1520.69 653.433 1521.75 653.08 1522.6 652.418L1573.56 695.811L1595.3 591.875C1595.38 591.88 1595.47 591.88 1595.56 591.875C1596.19 591.869 1596.81 591.701 1597.36 591.385L1677.14 696.99L1676.7 694.991L1794.6 550.381L1730.41 528.084ZM1385.63 444.326C1385.16 444.588 1384.74 444.926 1384.39 445.325L1346.29 417.592C1346.5 417.179 1346.62 416.72 1346.62 416.253C1346.62 415.124 1345.98 414.093 1344.97 413.585L1355.96 378.816H1356.12C1356.19 378.822 1356.25 378.824 1356.32 378.824C1356.39 378.824 1356.45 378.822 1356.52 378.816L1385.63 444.326ZM1303.53 416.813C1303.6 416.954 1303.66 417.101 1303.69 417.253L1340.56 415.863C1340.76 414.361 1342.05 413.242 1343.56 413.255H1343.94L1354.93 378.477C1354.87 378.44 1354.81 378.4 1354.75 378.357C1354.72 378.335 1354.69 378.311 1354.66 378.287L1303.53 416.813ZM1303.95 418.252L1340.66 416.833C1340.96 418.214 1342.17 419.204 1343.58 419.211C1344.36 419.211 1345.1 418.91 1345.66 418.372L1383.84 446.095C1383.77 446.215 1383.7 446.335 1383.64 446.465L1303.95 418.252ZM1377.33 232.187L1377.28 232.177L1377.33 232.167L1377.33 232.187ZM1372.65 236.244C1374.83 235.84 1376.62 234.288 1377.33 232.187L1537.71 271.982C1537.57 272.706 1537.49 273.443 1537.49 274.181C1537.5 274.852 1537.57 275.521 1537.69 276.18L1384.14 311.708C1383.51 309.929 1381.84 308.732 1379.95 308.71L1372.65 236.244ZM1775.77 303.273L1719.36 391.529C1719.16 391.436 1718.94 391.359 1718.72 391.299L1724.78 349.095H1725.11C1728.07 349.098 1730.56 346.876 1730.9 343.932C1731.24 340.988 1729.31 338.26 1726.43 337.592L1740.42 240.032H1740.72C1741.57 240.031 1742.41 239.836 1743.17 239.462L1775.9 294.279C1774.46 295.314 1773.6 296.969 1773.57 298.741C1773.54 300.512 1774.35 302.193 1775.76 303.273H1775.77ZM1725.5 337.412L1739.49 239.852C1737.54 239.402 1735.98 237.964 1735.36 236.064L1559.6 272.462C1559.71 273.046 1559.76 273.638 1559.76 274.231C1559.76 275.456 1559.56 276.672 1559.15 277.829L1719.94 340.66C1720.92 338.667 1722.95 337.406 1725.17 337.412H1725.5ZM1380.84 317.604C1382.92 317.161 1384.41 315.324 1384.41 313.197C1384.4 313.026 1384.38 312.856 1384.35 312.687L1537.85 277.179C1538.27 278.669 1538.99 280.057 1539.96 281.257L1394.98 411.326C1393.73 410.131 1392.06 409.465 1390.33 409.467H1390.11L1380.84 317.604ZM1397.04 416.213V416.893L1542.54 442.587C1543.33 440.203 1545.38 438.455 1547.86 438.05V285.324C1545.07 285.219 1542.42 284.025 1540.49 281.996L1395.61 412.066C1396.53 413.251 1397.04 414.71 1397.04 416.213ZM1554.7 444.726C1554.7 444.546 1554.63 444.356 1554.63 444.166C1554.54 440.985 1552.09 438.371 1548.92 438.07V285.324C1551.13 285.189 1553.26 284.453 1555.08 283.195L1704.04 469.58C1703.68 469.968 1703.42 470.428 1703.27 470.93L1554.7 444.726ZM1704.87 468.791C1705.4 468.396 1706.03 468.151 1706.68 468.081L1716.68 398.994C1714.93 398.599 1713.69 397.055 1713.68 395.266C1713.68 393.014 1715.5 391.189 1717.75 391.189H1717.82L1723.88 348.985C1721.24 348.372 1719.37 346.02 1719.36 343.308C1719.37 342.744 1719.45 342.182 1719.6 341.639L1558.84 278.678C1558.18 280.144 1557.2 281.447 1555.99 282.496L1704.87 468.791ZM1720.57 398.124C1721.42 397.321 1721.87 396.186 1721.81 395.02C1721.75 393.854 1721.19 392.771 1720.26 392.058L1776.66 303.813C1777.43 304.216 1778.28 304.432 1779.15 304.442L1793.14 496.004L1720.57 398.124ZM1780.2 293.309L1793.11 245.089L1746.17 235.964C1745.82 237.172 1745.07 238.228 1744.05 238.963L1776.78 293.779C1777.53 293.408 1778.36 293.217 1779.2 293.219C1779.54 293.216 1779.87 293.246 1780.2 293.309ZM1735.16 235.035L1559.4 271.433C1559.01 269.852 1558.27 268.379 1557.24 267.115L1645.74 187.724L1735.55 232.317C1735.29 232.972 1735.15 233.67 1735.15 234.375C1735.14 234.595 1735.14 234.816 1735.16 235.035ZM1556.57 266.376L1644.77 187.245L1569.28 149.768C1567.8 152.329 1565.07 153.907 1562.11 153.905H1561.69L1550.26 263.158C1552.66 263.519 1554.87 264.648 1556.57 266.376ZM1554.77 149.388C1555.97 151.707 1558.19 153.326 1560.76 153.755L1549.31 263.058H1548.65C1546.23 263.059 1543.87 263.852 1541.94 265.316L1479.4 189.693C1480.81 188.354 1481.61 186.492 1481.61 184.546C1481.61 183.718 1481.46 182.895 1481.18 182.118L1554.77 149.388ZM1472.81 191.472C1470.82 191.003 1469.12 189.695 1468.16 187.884L1377.31 228.229C1377.54 228.872 1377.65 229.547 1377.65 230.228C1377.65 230.563 1377.63 230.897 1377.57 231.227L1537.91 271.043C1538.5 269.085 1539.6 267.326 1541.12 265.956L1478.58 190.333C1476.91 191.526 1474.81 191.941 1472.81 191.472ZM1520.44 643.873L1528.27 504.779C1528.46 504.772 1528.65 504.755 1528.84 504.729L1550.37 604.497C1548.63 605.033 1547.3 606.44 1546.87 608.205C1546.43 609.97 1546.95 611.836 1548.23 613.122L1522.58 644.862C1521.96 644.357 1521.22 644.017 1520.44 643.873ZM1716.37 587.128C1716.88 584.769 1718.95 583.071 1721.36 583.02L1725.33 531.432C1724.37 531.251 1723.51 530.751 1722.87 530.013L1655.85 576.624C1656.35 577.507 1656.62 578.506 1656.62 579.523C1656.62 579.592 1656.62 579.663 1656.62 579.732L1716.37 587.128ZM1722.26 529.224L1655.03 575.835C1654.01 574.559 1652.47 573.798 1650.84 573.756V550.271C1652.93 550.034 1654.55 548.317 1654.66 546.213C1654.66 546.095 1654.67 545.976 1654.67 545.858C1654.67 545.76 1654.66 545.661 1654.66 545.564L1721.96 528.674C1722.05 528.852 1722.15 529.026 1722.26 529.194V529.224ZM1649.84 573.756V550.271V550.241C1647.84 549.947 1646.37 548.199 1646.42 546.173C1646.5 545.78 1646.62 545.4 1646.8 545.044L1533.28 501.471C1533.27 501.483 1533.26 501.496 1533.25 501.509C1533.24 501.517 1533.23 501.526 1533.22 501.535L1533.2 501.556C1533.18 501.578 1533.16 501.601 1533.14 501.624C1533.14 501.635 1533.13 501.645 1533.12 501.656C1533.12 501.659 1533.12 501.663 1533.12 501.666L1533.12 501.674C1533.12 501.679 1533.12 501.685 1533.12 501.691L1645.98 575.955C1647 574.822 1648.35 574.051 1649.84 573.756ZM1523.31 645.552L1523.32 645.542C1524.86 647.334 1524.85 649.983 1523.3 651.768L1572.38 693.532L1552.72 614.581C1551.42 614.82 1550.08 614.525 1549 613.761L1523.32 645.542L1523.3 645.522L1523.31 645.552ZM1551.35 604.287C1551.54 604.257 1551.74 604.237 1551.93 604.227V604.197C1553.72 604.196 1555.38 605.113 1556.33 606.626L1592.04 589.396C1591.91 589.027 1591.84 588.638 1591.84 588.247C1591.84 587.256 1592.23 586.307 1592.94 585.609L1531.2 503.889C1530.77 504.164 1530.3 504.379 1529.81 504.529L1551.35 604.287ZM1595.55 584.529C1594.92 584.535 1594.29 584.704 1593.74 585.019L1531.99 503.28C1532.13 503.157 1532.26 503.026 1532.39 502.889C1532.49 502.784 1532.58 502.674 1532.67 502.56L1645.62 576.754C1645.17 577.606 1644.93 578.556 1644.92 579.523V579.932L1599.05 587.158C1598.59 585.602 1597.18 584.525 1595.55 584.499V584.529ZM1716.29 588.117L1656.46 580.762V580.732C1656.03 582.798 1654.52 584.472 1652.51 585.109L1676.33 693.322L1718.99 592.814C1717.33 591.896 1716.29 590.148 1716.29 588.247V588.117ZM1719.89 593.214C1721.49 593.761 1723.26 593.494 1724.63 592.5C1725.99 591.506 1726.79 589.908 1726.77 588.217C1726.77 587.532 1726.64 586.853 1726.38 586.218L1791.82 552.239L1678 691.883L1719.89 593.214ZM1725.94 585.349L1792.5 550.77L1730.1 529.024C1729.4 530.489 1727.94 531.444 1726.32 531.502L1722.38 583.05C1723.84 583.281 1725.13 584.116 1725.94 585.349ZM1721.76 526.995V527.115C1721.75 527.308 1721.75 527.501 1721.76 527.695L1654.53 544.564C1653.92 543.133 1652.55 542.171 1651 542.08C1649.45 541.989 1647.98 542.785 1647.2 544.134L1533.72 500.541C1533.72 500.482 1533.74 500.422 1533.76 500.362L1533.76 500.361C1533.77 500.321 1533.79 500.281 1533.8 500.241L1721.76 526.995ZM1515.01 646.841C1515.6 645.151 1517.14 643.973 1518.93 643.843L1518.84 525.626C1517.98 525.618 1517.15 525.311 1516.5 524.756L1396.15 619.698C1396.69 620.572 1396.97 621.579 1396.97 622.606C1396.98 622.792 1396.98 622.979 1396.97 623.166L1515.01 646.841ZM1297.51 694.252L1221.07 612.752L1256.79 633.809C1255.78 636.046 1256.24 638.67 1257.94 640.436C1259.65 642.201 1262.25 642.751 1264.52 641.824C1266.79 640.898 1268.27 638.681 1268.25 636.228L1386.03 623.785C1386.16 624.5 1386.44 625.18 1386.85 625.784L1297.51 694.252ZM1105.23 659.423L1133.87 637.287L1133.89 637.267C1133.75 636.964 1133.67 636.634 1133.66 636.297C1133.66 635.836 1133.81 635.385 1134.07 635.008L1087.25 584.15C1086.68 584.554 1086.04 584.852 1085.36 585.029L1101.24 657.834C1101.38 657.824 1101.52 657.824 1101.66 657.834C1103.02 657.838 1104.31 658.415 1105.23 659.423ZM881.25 556.867C879.761 556.877 878.354 557.551 877.413 558.705L848.957 539.237C849.393 538.488 849.624 537.636 849.626 536.769C849.619 536.521 849.595 536.274 849.556 536.029L946.796 510.305C946.866 510.435 946.946 510.565 947.026 510.685C929.111 524.506 907.429 541.196 884.917 558.476C883.973 557.451 882.643 556.868 881.25 556.867ZM738.867 664.45C739.34 664.245 739.85 664.14 740.365 664.14C740.577 664.146 740.788 664.173 740.995 664.22L776.406 558.286C775.831 558.013 775.322 557.618 774.917 557.126L706.203 601.929C706.764 603.197 706.399 604.683 705.314 605.546L738.867 664.45ZM577.869 580.022L774.018 555.397C774.101 555.708 774.215 556.009 774.358 556.297L705.644 601.099C704.921 600.293 703.823 599.931 702.762 600.149C701.701 600.367 700.835 601.132 700.488 602.159L577.849 581.032V580.362C577.849 580.24 577.857 580.182 577.864 580.139C577.865 580.129 577.866 580.12 577.867 580.111C577.868 580.105 577.869 580.098 577.87 580.092C577.87 580.085 577.87 580.078 577.871 580.071L577.871 580.067V580.057L577.87 580.047L577.87 580.038L577.869 580.022ZM820.52 468.191L780.553 550.71C781.344 551.212 781.954 551.954 782.291 552.829L839.554 537.688C839.5 537.402 839.47 537.111 839.464 536.819C839.475 534.679 840.831 532.778 842.85 532.071C844.869 531.364 847.115 532.005 848.457 533.671L903.492 497.213C902.833 496.107 902.488 494.843 902.493 493.556C902.494 492.928 902.578 492.303 902.743 491.697L829.912 464.434C828.303 468.011 824.152 469.672 820.52 468.191ZM634.452 439.339C634.132 437.7 632.695 436.518 631.025 436.521C630.721 436.523 630.418 436.567 630.126 436.651L615.238 401.982C617.419 400.803 618.969 398.723 619.475 396.296L895.239 420.74L634.452 439.339ZM242.423 231.977L233.631 132.189C232.682 132.172 231.752 131.921 230.923 131.459L190.316 197.468C191.53 198.392 192.244 199.83 192.244 201.356C192.24 202.148 192.041 202.927 191.665 203.624L238.247 234.465C239.276 233.14 240.768 232.251 242.423 231.977ZM770.571 320.452C771.921 320.447 773.211 319.895 774.148 318.923L835.008 367.893V368.023L835.278 368.103L880.791 404.75L866.422 403.271L719.772 332.485C719.993 331.928 720.108 331.335 720.112 330.736C720.11 330.376 720.067 330.017 719.982 329.667L765.945 317.334C766.709 319.218 768.538 320.451 770.571 320.452ZM842.782 301.234C841.668 302.914 839.801 303.941 837.786 303.983L836.007 366.924L905.3 340.02C905.173 339.588 905.106 339.141 905.101 338.691C905.101 338.003 905.244 337.323 905.52 336.692L842.782 301.234ZM1051.28 272.662C1051.35 274.026 1052.47 275.097 1053.84 275.1C1054.14 275.095 1054.44 275.038 1054.72 274.93L1096.2 343.518C1095.77 343.831 1095.38 344.197 1095.04 344.607L977.231 263.258C977.398 262.941 977.525 262.605 977.611 262.258L1051.28 272.662ZM1205.2 240.242C1203.12 239.945 1201.56 238.165 1201.54 236.054L1094.61 224.731V224.851L1197.52 260.309C1198.9 257.212 1201.83 255.089 1205.2 254.743V240.242ZM1287.32 329.297L1241.36 322.351C1241.36 322.305 1241.36 322.258 1241.36 322.211C1241.35 320.848 1240.71 319.564 1239.63 318.743L1274.31 268.434C1275.12 268.895 1276.03 269.136 1276.97 269.134C1277.3 269.135 1277.63 269.109 1277.97 269.054L1292.75 322.831C1289.96 323.929 1287.92 326.361 1287.32 329.297ZM1214.89 263.188H1271.57C1271.58 262.851 1271.63 262.517 1271.7 262.188L1209.59 238.013C1209.01 239.368 1207.68 240.245 1206.2 240.242V254.743C1210.87 254.823 1214.68 258.521 1214.89 263.188ZM1330.52 472.579L1515.12 520.969V521.029H1274.52C1274.44 519.962 1274.09 518.932 1273.52 518.03L1330.52 472.579ZM1385.94 622.636C1385.94 619.577 1388.41 617.095 1391.47 617.089H1391.51C1393.08 617.088 1394.58 617.757 1395.63 618.928L1515.87 524.037L1515.81 523.957L1268.01 634.279C1268.11 634.575 1268.19 634.879 1268.23 635.188L1385.94 622.746V622.636ZM1231.83 400.803C1232.22 401.136 1232.63 401.434 1233.07 401.692L1204.98 462.005C1203.69 461.591 1202.27 461.826 1201.17 462.638C1200.07 463.449 1199.43 464.738 1199.45 466.103C1199.46 466.802 1199.64 467.487 1199.98 468.101L1168.01 493.805V493.526L1167.74 493.815L1167.43 466.762L1231.83 400.803ZM1225.97 490.348L1263.19 517.471C1263.94 516.525 1264.95 515.811 1266.09 515.412L1238.01 402.482C1237.57 402.566 1237.12 402.609 1236.68 402.612H1235.96L1222.85 482.652C1224.43 483.062 1225.73 484.198 1226.35 485.715C1226.96 487.232 1226.82 488.95 1225.97 490.348ZM1234.96 402.442L1221.86 482.492H1221.51C1220.49 482.49 1219.49 482.793 1218.63 483.362L1206.98 468.841C1207.63 468.076 1207.99 467.105 1207.98 466.103C1207.98 464.577 1207.16 463.169 1205.84 462.405L1233.96 402.122C1234.29 402.252 1234.62 402.359 1234.96 402.442ZM1206.24 469.55C1205.51 470.102 1204.61 470.4 1203.7 470.4L1203.72 470.39C1203.22 470.391 1202.72 470.307 1202.25 470.14L1156.63 568L1156.84 568.11L1217.92 491.437C1216.9 490.471 1216.32 489.13 1216.3 487.724C1216.29 486.318 1216.85 484.967 1217.85 483.981L1206.24 469.55ZM1167.73 495.324L1200.55 468.951C1200.8 469.235 1201.09 469.486 1201.4 469.7L1155.78 567.57L1155.4 567.45L1167.73 495.324ZM1218.76 492.056L1157.67 568.739L1157.64 568.729C1158.02 569.084 1158.34 569.495 1158.59 569.948L1262.16 523.857C1261.46 522.028 1261.64 519.979 1262.65 518.3L1225.42 491.157C1223.73 493.059 1220.9 493.441 1218.76 492.056ZM1268.37 527.894C1271.57 527.685 1274.16 525.222 1274.54 522.038H1515.17C1515.17 522.038 1515.28 522.718 1515.38 522.987L1267.62 633.309C1266.71 631.552 1264.98 630.362 1263.01 630.131L1268.37 527.894ZM1268.15 515.162C1269.98 515.162 1271.72 515.945 1272.93 517.311L1329.73 472.129L1242.2 400.323C1241.35 401.249 1240.27 401.937 1239.07 402.322L1267.15 515.252C1267.48 515.199 1267.82 515.169 1268.15 515.162ZM1231.16 400.103L1167.44 465.383L1166.39 371.701L1229.69 393.257C1229.5 393.93 1229.4 394.626 1229.4 395.326C1229.39 397.072 1230 398.762 1231.13 400.093L1231.16 400.103ZM1166.45 466.392L1165.39 371.361L1105.48 350.964C1104.78 352.57 1103.42 353.802 1101.76 354.351L1134.44 489.848C1134.95 489.751 1135.46 489.701 1135.97 489.698C1138.05 489.701 1140.06 490.457 1141.63 491.827L1166.45 466.392ZM1057.94 479.454L1059.31 418.362C1060.56 418.296 1061.75 417.857 1062.74 417.103L1129.84 492.226C1128.72 493.345 1127.93 494.754 1127.57 496.294L1061.96 484.391V484.051C1061.96 481.728 1060.24 479.764 1057.94 479.454ZM1019.86 442.149C1021.12 441.814 1022.47 442.132 1023.45 442.997L1053.92 415.874C1053.27 415.019 1052.85 414.01 1052.7 412.945L991.13 416.483C990.996 418.42 989.447 419.958 987.509 420.077C985.572 420.196 983.846 418.859 983.476 416.953L907.099 420.95C907.109 421.11 907.109 421.27 907.099 421.43L1017.16 444.666C1017.58 443.428 1018.6 442.484 1019.86 442.149ZM390.102 438.779L394.049 357.04C397.809 356.857 401.064 354.366 402.222 350.784L602.938 393.757C602.906 394.046 602.889 394.336 602.888 394.627C602.892 395.249 602.962 395.868 603.098 396.475L393.929 441.847C393.314 440.199 391.845 439.021 390.102 438.779ZM191.455 391.928L155.145 546.023C156.623 546.434 157.958 547.247 159.002 548.372L386.815 353.972C385.969 353.009 385.336 351.878 384.957 350.654L199.449 384.373C199.464 384.619 199.464 384.866 199.449 385.112C199.451 386.946 198.725 388.705 197.43 390.002C196.135 391.299 194.377 392.028 192.544 392.028C192.179 392.025 191.815 391.992 191.455 391.928ZM243.363 245.209L246.45 303.313C245.172 303.555 244.12 304.462 243.692 305.691L146.262 278.258C146.335 277.91 146.372 277.555 146.372 277.199C146.37 276.685 146.296 276.174 146.152 275.68L237.467 241.361C238.54 243.659 240.828 245.144 243.363 245.189V245.209ZM243.492 306.641L145.982 279.188V279.198C145.517 280.381 144.655 281.367 143.544 281.986L190.016 378.696C191.856 377.962 193.922 378.057 195.687 378.956C197.452 379.856 198.742 381.473 199.229 383.394L384.677 349.684C384.564 349.128 384.508 348.563 384.507 347.995C384.51 347.462 384.561 346.931 384.657 346.406L250.377 308.57C249.601 310.066 247.902 310.835 246.266 310.432C244.63 310.028 243.484 308.556 243.492 306.871C243.488 306.794 243.488 306.717 243.492 306.641ZM719.313 333.364L863.495 402.961L782.331 394.627L718.913 333.914C719.062 333.746 719.195 333.565 719.313 333.374V333.364ZM866.143 404.491L782.031 396.096L622.982 396.066L895.838 420.051C895.905 419.646 895.999 419.245 896.118 418.852L866.143 404.491ZM1093.67 348.675C1093.69 349.56 1093.9 350.43 1094.3 351.223L990.381 413.825C989.098 412.145 986.699 411.819 985.015 413.095L913.993 341.839C914.563 341.153 914.932 340.323 915.062 339.441L1093.67 348.675ZM1130.6 491.552L1130.64 491.587L1130.59 491.567L1130.6 491.552ZM1133.53 490.088C1132.47 490.383 1131.48 490.88 1130.6 491.552L1063.54 416.453C1064.78 415.163 1065.4 413.406 1065.26 411.625C1065.12 409.845 1064.22 408.209 1062.8 407.129L1096.96 353.952C1097.85 354.426 1098.84 354.674 1099.85 354.671C1100.19 354.673 1100.52 354.646 1100.85 354.591L1133.53 490.088ZM991.16 415.494C991.106 415.217 991.026 414.946 990.92 414.684L1094.84 352.093C1095.19 352.582 1095.61 353.016 1096.09 353.382L1061.93 406.559C1060.01 405.531 1057.69 405.574 1055.81 406.675C1053.92 407.776 1052.75 409.775 1052.7 411.956L991.16 415.494ZM913.304 342.559C912.42 343.287 911.312 343.689 910.167 343.698H910.126C908.251 343.69 906.538 342.633 905.69 340.96L837.016 367.633L983.856 414.544C983.985 414.281 984.143 414.033 984.326 413.805L913.304 342.559ZM907.119 419.951C906.812 417.805 905.31 416.021 903.247 415.354C901.184 414.686 898.922 415.253 897.417 416.813L884.088 406.09L981.298 416.083L907.119 419.951ZM896.638 417.842L896.787 417.592L882.229 405.91L869.06 404.55L896.638 417.842ZM1099.85 342.349L1090.75 228.719C1092.35 228.374 1093.69 227.286 1094.36 225.791L1197.36 261.249C1197.13 262.042 1197.02 262.862 1197.01 263.687C1197.01 265.552 1197.59 267.37 1198.68 268.884L1104.32 344.288C1103.16 343.051 1101.54 342.35 1099.85 342.349ZM1089.72 228.859H1089.66C1088.78 228.859 1087.92 228.628 1087.16 228.189L1055.74 270.833C1056.17 271.302 1056.42 271.92 1056.42 272.562C1056.41 273.286 1056.1 273.975 1055.57 274.461L1097.06 343.038C1097.61 342.764 1098.2 342.576 1098.81 342.479L1089.72 228.859ZM970.997 264.927C972.824 266.111 975.245 265.761 976.662 264.107L1094.48 345.467C1094.08 346.158 1093.82 346.923 1093.72 347.716L915.092 338.491C915.039 337.251 914.526 336.076 913.654 335.193L970.997 264.927ZM882.619 404.97L982.647 415.244L837.916 368.992L882.619 404.97ZM715.386 335.473C716.346 335.554 717.308 335.33 718.134 334.833L780.832 395.106H619.604C619.703 392.535 618.594 390.065 616.607 388.43L664.298 311.298C664.892 311.56 665.537 311.687 666.186 311.668C667.716 311.66 669.132 310.862 669.933 309.559L710.9 329.327C710.743 329.784 710.662 330.263 710.66 330.746C710.66 333.357 712.776 335.473 715.386 335.473ZM615.778 387.591L663.429 310.638L663.419 310.598C662.336 309.752 661.713 308.447 661.734 307.073C661.756 305.699 662.42 304.415 663.528 303.603L587.511 171.984C586.943 172.258 586.341 172.456 585.722 172.574L611.161 386.252H611.251C612.858 386.253 614.429 386.718 615.778 387.591ZM584.403 172.724H584.743L610.162 386.362C609.109 386.503 608.092 386.842 607.165 387.361L553.309 305.412C556.081 303.543 557.573 300.28 557.172 296.961C556.772 293.642 554.547 290.827 551.41 289.671L583.014 172.594C583.47 172.672 583.931 172.709 584.393 172.704L584.403 172.724ZM552.459 305.911C551.184 306.571 549.769 306.914 548.333 306.911C545.968 306.911 543.701 305.97 542.031 304.296C540.36 302.621 539.425 300.351 539.43 297.986C539.428 297.154 539.546 296.326 539.78 295.528L359.817 215.577C359.732 215.742 359.639 215.902 359.537 216.057C390.438 238.323 538.8 343.041 592.518 380.956L592.617 381.025L592.689 381.076C597.484 384.461 601.518 387.308 604.637 389.51C605.121 388.882 605.693 388.326 606.335 387.861L552.459 305.911ZM358.948 216.866C392.97 241.391 565.449 363.106 604.077 390.349C604.007 390.459 603.937 390.569 603.877 390.679L445.087 311.878C445.305 311.331 445.417 310.747 445.417 310.159C445.431 308.311 444.403 306.613 442.76 305.768C441.117 304.923 439.138 305.075 437.643 306.161L358.608 217.216C358.729 217.107 358.842 216.99 358.948 216.866ZM441.041 315.036C439.577 315.202 438.115 314.699 437.064 313.667L401.253 343.118C402.176 344.566 402.665 346.248 402.662 347.965C402.663 348.576 402.603 349.186 402.482 349.784L603.108 392.788C603.205 392.387 603.329 391.993 603.478 391.608L444.608 312.807C443.816 314.05 442.505 314.869 441.041 315.036ZM384.897 345.437L250.707 307.65C250.759 307.401 250.786 307.146 250.787 306.891C250.783 305.001 249.332 303.429 247.449 303.273L244.352 245.149C245.995 244.935 247.498 244.115 248.568 242.85L385.886 343.218C385.462 343.908 385.129 344.651 384.897 345.427V345.437ZM191.115 204.454C190.193 205.596 188.806 206.26 187.339 206.263C186.601 206.263 185.873 206.096 185.21 205.773L144.034 272.732C144.774 273.242 145.375 273.929 145.783 274.731L237.118 240.412C236.942 239.804 236.851 239.175 236.848 238.543C236.847 237.405 237.139 236.286 237.697 235.295L191.115 204.454ZM142.625 282.386L189.117 379.126C186.703 380.477 185.328 383.14 185.624 385.891C185.92 388.643 187.829 390.952 190.476 391.758L154.176 545.803C153.737 545.719 153.293 545.672 152.847 545.663L141.416 282.656C141.828 282.613 142.234 282.523 142.625 282.386ZM387.485 354.681L159.611 549.141H159.561C159.821 549.491 160.052 549.862 160.251 550.251L384.827 444.916C384.678 444.467 384.601 443.999 384.597 443.526C384.602 440.99 386.573 438.893 389.103 438.729L393.05 357.04C390.978 356.919 389.012 356.086 387.485 354.681ZM394.249 443.536C394.243 443.295 394.217 443.054 394.169 442.817L603.388 397.425C603.608 398.051 603.903 398.649 604.267 399.204L397.776 529.333C396.325 527.321 394.03 526.087 391.551 525.986L389.983 448.303C392.409 448.029 394.244 445.979 394.249 443.536ZM604.866 400.013L398.316 530.183C398.352 530.251 398.386 530.322 398.421 530.395C398.456 530.472 398.492 530.552 398.529 530.636L398.545 530.673L627.628 440.918C627.552 440.631 627.511 440.336 627.508 440.039C627.5 438.818 628.129 437.682 629.167 437.04L614.289 402.392C610.963 403.702 607.172 402.745 604.866 400.013ZM906.899 422.409L1016.97 445.645V445.965C1016.97 446.331 1017.03 446.695 1017.14 447.044L916.141 490.457C914.947 487.984 912.443 486.412 909.697 486.41H909.377L902.643 426.287C904.657 425.862 906.283 424.378 906.889 422.409H906.899ZM946.363 509.359L946.377 509.356L946.367 509.376L946.363 509.359ZM946.277 508.426C946.271 508.74 946.3 509.053 946.363 509.359L849.276 535.06C849.198 534.855 849.108 534.655 849.007 534.46L904.081 498.043C905.613 499.95 908.014 500.942 910.445 500.67C912.875 500.399 914.998 498.902 916.072 496.704L946.277 508.007C946.267 508.146 946.267 508.287 946.277 508.426ZM950.114 504.549C948.525 504.549 947.1 505.526 946.527 507.007L916.471 495.754C916.7 495.04 916.818 494.295 916.821 493.546C916.818 492.802 916.7 492.064 916.471 491.357L1017.49 447.944C1017.51 447.981 1017.53 448.018 1017.55 448.054C1017.58 448.096 1017.6 448.136 1017.63 448.174L952.901 505.738C952.167 504.984 951.157 504.561 950.104 504.569L950.114 504.549ZM1024.36 447.785C1023.68 449.076 1022.34 449.886 1020.89 449.893L1020.88 449.913C1020.42 449.927 1019.97 449.863 1019.54 449.723L951.213 582.781C951.482 582.935 951.734 583.119 951.962 583.33L1053.68 486.86C1053.04 486.058 1052.69 485.066 1052.68 484.041C1052.69 481.63 1054.54 479.626 1056.95 479.424L1058.32 418.342C1056.92 418.198 1055.62 417.593 1054.61 416.623L1024.13 443.726C1024.95 444.933 1025.04 446.494 1024.36 447.785ZM1054.35 487.569C1055.54 488.605 1057.17 488.959 1058.68 488.509C1060.19 488.059 1061.36 486.867 1061.79 485.351L1127.4 497.253C1127.36 497.585 1127.33 497.919 1127.33 498.253C1127.33 499.355 1127.54 500.447 1127.95 501.471L952.712 583.93L1054.35 487.569ZM1143.85 501.788C1142.47 504.914 1139.37 506.927 1135.95 506.917L1135.94 506.937C1134.46 506.93 1133 506.538 1131.71 505.798L1087.27 574.845C1087.49 575.001 1087.7 575.172 1087.89 575.355L1166.75 494.825L1166.45 467.781L1142.32 492.496C1144.63 495.015 1145.23 498.661 1143.85 501.788ZM1088.55 576.105L1166.49 496.514L1154.39 567.26H1154C1151.08 567.26 1148.72 569.621 1148.71 572.537L1089.56 578.423C1089.4 577.59 1089.05 576.804 1088.54 576.125L1088.55 576.105ZM1262.61 524.756L1159.02 570.848C1159.47 572.127 1159.4 573.535 1158.8 574.755L1215.57 608.225C1216.55 607.085 1218.13 606.674 1219.54 607.195C1220.95 607.717 1221.89 609.06 1221.89 610.563C1221.89 610.993 1221.81 611.419 1221.66 611.823L1257.37 632.88C1258.41 631.283 1260.15 630.277 1262.06 630.171L1267.39 527.934C1265.39 527.69 1263.61 526.512 1262.61 524.756ZM1513.87 519.679L1330.68 471.579L1242.75 399.434C1242.93 399.163 1243.1 398.883 1243.24 398.594L1513.87 519.679ZM1230.01 392.298C1230.89 390.369 1232.55 388.911 1234.58 388.301L1207.49 272.512C1206.98 272.604 1206.46 272.651 1205.94 272.652C1203.39 272.647 1200.96 271.557 1199.26 269.654L1104.91 345.057C1105.9 346.5 1106.21 348.303 1105.76 349.994L1230.01 392.298ZM1210.6 271.373C1213.15 269.838 1214.77 267.145 1214.94 264.177H1271.62C1271.75 265.613 1272.44 266.939 1273.55 267.865L1238.85 318.214C1238.28 317.957 1237.67 317.824 1237.05 317.824C1236.42 317.828 1235.81 317.964 1235.24 318.224L1210.6 271.373ZM1241.24 323.331C1240.84 324.804 1239.7 325.963 1238.24 326.389L1246.39 361.677C1246.49 361.672 1246.58 361.672 1246.68 361.677C1247.64 361.68 1248.56 362.078 1249.22 362.776L1288.38 335.423C1287.61 334.085 1287.2 332.569 1287.2 331.026V330.276L1241.24 323.331ZM1249.95 366.324C1250.09 365.947 1250.17 365.548 1250.17 365.145C1250.16 364.595 1250.03 364.054 1249.78 363.566L1288.92 336.413C1290.57 338.699 1293.19 340.078 1296.01 340.14L1301.71 391.109C1300.69 391.315 1299.8 391.893 1299.19 392.728L1249.95 366.324ZM1296.97 339.8L1302.65 390.869H1302.66C1303.84 390.872 1304.95 391.361 1305.75 392.218L1358.24 353.732C1358.08 353.392 1357.99 353.02 1357.99 352.643C1357.98 352.536 1357.98 352.429 1357.99 352.323L1304.11 334.424C1302.88 337.378 1300.15 339.435 1296.97 339.8ZM1359.35 350.364C1358.93 350.595 1358.58 350.942 1358.35 351.363L1304.48 333.474C1304.71 332.678 1304.83 331.854 1304.83 331.026C1304.83 329.386 1304.37 327.779 1303.5 326.389L1341.23 301.644C1342.04 302.702 1343.3 303.323 1344.63 303.323C1344.9 303.322 1345.16 303.295 1345.42 303.243L1359.35 350.364ZM1340.66 300.804C1340.15 299.702 1340.13 298.436 1340.6 297.317L1281.59 266.686C1280.95 267.667 1280.02 268.42 1278.92 268.834L1293.68 322.521C1294.43 322.316 1295.2 322.212 1295.97 322.211C1298.68 322.21 1301.23 323.451 1302.9 325.579L1340.66 300.804ZM1278.81 258.571C1278.23 258.353 1277.6 258.241 1276.98 258.241C1274.92 258.24 1273.04 259.4 1272.11 261.239L1210.07 237.064C1210.28 236.34 1210.28 235.569 1210.07 234.845L1305.15 196.089C1305.59 196.918 1306.25 197.609 1307.05 198.088L1278.81 258.571ZM1304.75 195.18C1304.72 195.092 1304.69 195.001 1304.67 194.91L1094.76 223.582V223.742L1201.76 235.065C1202.14 233.327 1203.56 232.01 1205.33 231.76C1207.09 231.511 1208.82 232.382 1209.67 233.946L1304.75 195.18ZM1084.98 225.791C1085.29 226.48 1085.75 227.091 1086.33 227.58L1054.93 270.193C1054.27 269.877 1053.51 269.858 1052.84 270.141C1052.16 270.424 1051.64 270.981 1051.41 271.672L977.741 261.309C977.746 261.269 977.746 261.229 977.741 261.189C977.736 260.9 977.706 260.613 977.651 260.329L1084.98 225.791ZM970.217 264.297C969.814 263.875 969.495 263.38 969.278 262.838L843.671 296.487C843.963 297.785 843.826 299.142 843.281 300.355L906.05 335.853C907.605 333.653 910.624 333.083 912.874 334.564L970.217 264.297ZM831.811 299.675C832.525 301.931 834.465 303.581 836.807 303.923L835.068 366.654L774.777 318.144C775.286 317.35 775.56 316.428 775.567 315.485C775.56 315.25 775.534 315.016 775.487 314.786L831.811 299.675ZM765.605 315.485C765.605 314.505 765.893 313.545 766.434 312.727L589.609 170.425C589.242 170.825 588.83 171.181 588.38 171.484L664.378 303.093C664.935 302.847 665.537 302.721 666.146 302.723C667.592 302.703 668.954 303.396 669.789 304.577C670.624 305.757 670.824 307.273 670.323 308.63L711.289 328.397C712.152 326.861 713.803 325.936 715.564 326.004C717.325 326.071 718.9 327.119 719.642 328.717L765.695 316.375C765.635 316.082 765.605 315.784 765.605 315.485ZM577.499 167.477C578.122 169.729 579.809 171.533 582.015 172.304L550.461 289.362C548.489 288.858 546.402 289.064 544.566 289.941L493.787 187.684C494.928 186.952 495.62 185.692 495.626 184.336V184.027L577.499 167.477ZM491.649 188.314C489.943 188.3 488.434 187.204 487.892 185.586L360.627 211.28C360.67 211.584 360.693 211.891 360.697 212.199C360.694 213.035 360.546 213.864 360.257 214.648L540.11 294.598C540.828 292.858 542.08 291.392 543.687 290.411L492.878 188.104C492.481 188.235 492.067 188.306 491.649 188.314ZM356 218.925C356.663 218.685 357.285 218.348 357.849 217.926L436.894 306.871C435.371 308.52 435.172 310.997 436.414 312.867L400.644 342.329C398.498 339.639 395.015 338.396 391.651 339.121L356 218.925ZM386.445 342.399C386.871 341.862 387.353 341.373 387.884 340.94L313.985 238.453C313.5 238.703 312.962 238.833 312.416 238.833C310.757 238.834 309.315 237.691 308.939 236.074L250.157 238.743C250.125 239.915 249.78 241.057 249.158 242.051L386.445 342.399ZM309.848 232.746C309.238 233.372 308.882 234.202 308.849 235.075L250.107 237.743C249.707 234.399 246.87 231.883 243.503 231.887H243.423L234.63 132.109C235.371 131.989 236.08 131.724 236.718 131.329L309.848 232.746ZM230.094 130.899C228.923 129.938 228.182 128.55 228.035 127.042L9.26436 142.232V142.392C9.26701 144.664 8.45113 146.86 6.96625 148.578L137.15 273.142C138.771 271.638 141.141 271.267 143.145 272.202L184.341 205.243C182.655 203.97 181.976 201.758 182.657 199.757C183.338 197.756 185.226 196.419 187.339 196.439C188.073 196.443 188.798 196.614 189.457 196.939L230.094 130.899ZM-3.55514 151.267C-0.156944 152.551 3.67664 151.774 6.30679 149.268L136.5 273.831C135.775 274.781 135.382 275.944 135.381 277.139C135.385 277.573 135.435 278.005 135.531 278.428L-86.0276 356.38C-87.0385 353.885 -88.93 351.847 -91.3432 350.654L-3.55514 151.267ZM-85.2582 360.488C-85.2463 362.763 -85.9449 364.985 -87.2566 366.844L146.332 548.732C147.713 547.055 149.69 545.981 151.848 545.733L140.387 282.616C138.386 282.449 136.635 281.203 135.821 279.368L-85.7278 357.32C-85.4189 358.347 -85.2607 359.414 -85.2582 360.488ZM161.12 553.139C161.048 552.456 160.89 551.784 160.65 551.14L385.216 445.845C385.982 447.244 387.395 448.17 388.983 448.313L390.552 526.006C386.359 526.349 383.13 529.852 383.128 534.061V534.25L161.12 553.139ZM628.028 441.797L398.925 531.582H398.915C398.934 531.663 398.957 531.743 398.985 531.822L894.739 421.74L634.452 440.338C634.312 441.83 633.229 443.063 631.768 443.395C630.307 443.727 628.798 443.082 628.028 441.797ZM896.688 423.799C897.729 425.435 899.534 426.426 901.474 426.427H901.603L908.348 486.55C905.997 486.984 904.02 488.568 903.082 490.767L830.242 463.504C830.447 462.827 830.552 462.123 830.552 461.415C830.551 460.408 830.344 459.411 829.942 458.487L896.688 423.799ZM819.601 467.761C818.442 467.101 817.485 466.137 816.833 464.973L577.389 577.944C577.537 578.296 577.654 578.66 577.739 579.033L773.868 554.358C773.868 551.963 775.81 550.021 778.205 550.021C778.692 550.03 779.174 550.118 779.633 550.281L819.601 467.761ZM577.269 583.01C577.431 582.692 577.558 582.357 577.649 582.011L700.308 603.148C700.308 603.964 700.633 604.747 701.21 605.324C701.787 605.902 702.57 606.226 703.386 606.226C703.751 606.221 704.113 606.154 704.455 606.026L738.017 664.99C737.73 665.214 737.474 665.476 737.258 665.769C716.595 654.896 604.896 597.262 577.269 583.01ZM741.944 664.54C742.468 664.782 742.93 665.141 743.293 665.589C757.671 655.696 818.861 609.104 876.964 564.582C876.464 563.789 876.197 562.871 876.194 561.933C876.197 561.112 876.406 560.304 876.804 559.585L848.337 540.107C847.199 541.493 845.405 542.162 843.637 541.86C841.869 541.559 840.399 540.333 839.784 538.648L782.501 553.798C782.536 554 782.556 554.204 782.561 554.408C782.564 555.56 782.108 556.666 781.294 557.481C780.481 558.297 779.376 558.755 778.224 558.755C777.925 558.752 777.628 558.719 777.335 558.655L741.944 664.54ZM886.036 563.183C886.153 562.773 886.213 562.349 886.216 561.923C886.215 561.001 885.955 560.097 885.467 559.315C910.024 540.466 931.315 524.06 942.951 515.095L943.074 515L943.953 514.323L947.676 511.455C948.358 512.021 949.217 512.332 950.104 512.334C952.239 512.334 953.971 510.602 953.971 508.466C953.966 507.817 953.794 507.18 953.471 506.618L1018.29 448.973L1018.64 449.263L950.254 582.451C948.3 581.83 946.194 582.789 945.378 584.669L886.036 563.183ZM950.215 590.451C948.398 590.936 946.483 590.138 945.547 588.507L925.304 598.031C925.36 598.247 925.39 598.468 925.394 598.691C925.391 599.012 925.33 599.33 925.214 599.63L981.988 628.342C982.973 626.741 984.636 625.677 986.503 625.455C988.37 625.233 990.236 625.877 991.57 627.203L1129.21 503.729C1128.89 503.336 1128.6 502.915 1128.36 502.47L953.021 584.989C953.193 585.453 953.285 585.943 953.291 586.438C953.294 588.319 952.031 589.965 950.215 590.451ZM922.736 601.349C923.497 601.364 924.226 601.046 924.734 600.48L981.578 629.272C981.276 630.015 981.12 630.809 981.118 631.61V632L802.674 655.696L920.578 600.21C921.081 600.899 921.883 601.308 922.736 601.309V601.349ZM981.228 632.96L802.754 656.695L1008.63 694.282L988.892 637.497C987.272 637.953 985.537 637.726 984.089 636.869C982.642 636.011 981.608 634.599 981.228 632.96ZM989.831 637.147C991.997 636.136 993.381 633.961 993.378 631.57C993.383 630.277 992.974 629.016 992.209 627.973L1129.87 504.439C1130.18 504.743 1130.51 505.023 1130.87 505.278L1086.39 574.356C1083.8 573.124 1080.69 574.011 1079.14 576.427C1077.58 578.843 1078.06 582.037 1080.26 583.89L1009.52 693.822L989.831 637.147ZM1083.92 585.249C1083.24 585.244 1082.56 585.116 1081.93 584.869L1061.05 633.699C1061.95 634.274 1062.5 635.269 1062.5 636.337C1062.5 636.754 1062.42 637.165 1062.25 637.547L1097.86 659.693C1098.48 658.918 1099.31 658.349 1100.26 658.064L1084.37 585.249H1083.92ZM1035.33 693.902L1058.64 639.346C1059.78 639.647 1060.99 639.256 1061.73 638.346L1097.34 660.493C1096.99 661.165 1096.81 661.912 1096.8 662.671C1096.81 663.248 1096.91 663.819 1097.11 664.36L1035.33 693.902ZM1134.5 638.056L1105.85 660.203C1106.31 660.952 1106.55 661.812 1106.56 662.691C1106.55 663.082 1106.5 663.471 1106.41 663.85L1188.13 693.752L1137.06 638.266C1136.72 638.471 1136.34 638.578 1135.94 638.576C1135.42 638.576 1134.91 638.392 1134.5 638.056ZM1189.69 693.962L1137.8 637.607C1138.06 637.233 1138.19 636.79 1138.19 636.338C1138.19 635.094 1137.18 634.084 1135.94 634.079C1135.55 634.082 1135.17 634.189 1134.83 634.389L1088.08 583.53C1089.13 582.463 1089.72 581.028 1089.72 579.533V579.443L1148.86 573.546C1149.26 575.61 1150.84 577.241 1152.89 577.694C1154.94 578.146 1157.07 577.332 1158.29 575.625L1214.98 609.064C1214.16 610.784 1214.85 612.838 1216.54 613.721L1189.69 693.962ZM1387.54 626.444L1299.51 693.962L1514.91 649.709C1514.83 649.345 1514.78 648.973 1514.78 648.6C1514.78 648.331 1514.81 648.064 1514.86 647.8L1396.84 624.135C1396.3 626.039 1394.78 627.506 1392.85 627.983C1390.93 628.46 1388.91 627.873 1387.54 626.444ZM1573.2 692.643L1553.7 614.301C1555.03 613.839 1556.11 612.854 1556.69 611.574C1557.28 610.294 1557.31 608.831 1556.79 607.525L1592.47 590.276C1592.92 590.942 1593.57 591.444 1594.33 591.705L1573.2 692.643ZM1599.28 588.177C1599.28 589.168 1598.88 590.116 1598.18 590.816L1675.2 692.763L1651.54 585.249C1651.29 585.289 1651.03 585.309 1650.78 585.309C1648.1 585.308 1645.77 583.481 1645.13 580.882L1599.28 588.097V588.177Z" fill="#E76ECE"/>
<path fill-rule="evenodd" clip-rule="evenodd" d="M1120.23 587.807C1119.95 586.748 1119.02 585.988 1117.93 585.915C1116.83 585.842 1115.81 586.472 1115.39 587.484C1114.96 588.496 1115.23 589.666 1116.05 590.396C1116.87 591.125 1118.06 591.254 1119.02 590.715L1178.68 661.332C1178.38 661.722 1178.22 662.2 1178.22 662.691C1178.21 663.786 1178.98 664.733 1180.05 664.946C1181.13 665.159 1182.2 664.578 1182.61 663.562C1183.02 662.546 1182.65 661.383 1181.72 660.792L1197.99 616.619L1198.12 616.26L1154.16 585.279L1120.23 587.807ZM1157.35 601.859L1120.3 588.867L1153.63 586.358L1158.56 600.679C1158.06 600.953 1157.64 601.361 1157.35 601.859ZM1157.02 602.778L1119.97 589.786C1119.93 589.89 1119.88 589.991 1119.82 590.086L1179.2 660.342L1160.61 606.376C1160.45 606.408 1160.29 606.425 1160.13 606.426C1158.41 606.42 1157.02 605.026 1157.02 603.308C1157.01 603.131 1157.01 602.954 1157.02 602.778ZM1160.08 600.21C1159.89 600.215 1159.7 600.235 1159.51 600.27L1154.97 587.068L1194.25 614.811L1163.14 603.887C1163.18 603.703 1163.2 603.516 1163.2 603.328C1163.2 601.606 1161.8 600.21 1160.08 600.21ZM1180.25 660.422H1180.49C1180.58 660.43 1180.68 660.444 1180.77 660.462L1196.83 616.789L1162.8 604.797C1162.5 605.334 1162.05 605.772 1161.51 606.056L1180.25 660.422Z" fill="#E76ECE"/>
</g>
</svg>
