<svg width="48" height="48" viewBox="0 0 48 48" fill="none" xmlns="http://www.w3.org/2000/svg">
<g id="Icon/Social/Facebook">
<path id="Shape" fill-rule="evenodd" clip-rule="evenodd" d="M45.3509 0H2.64914C1.18591 0 0 1.1859 0 2.64913V45.3507C0 46.8137 1.18591 48 2.64914 48H25.6384V29.4118H19.383V22.1676H25.6384V16.8253C25.6384 10.6257 29.4249 7.24977 34.9555 7.24977C37.6049 7.24977 39.8817 7.44688 40.5452 7.53501V14.0141L36.7094 14.0159C33.7016 14.0159 33.1191 15.4452 33.1191 17.5425V22.1676H40.2927L39.3587 29.4118H33.1191V48H45.3509C46.8139 48 48 46.8137 48 45.3507V2.64913C48 1.1859 46.8139 0 45.3509 0Z" fill="black"/>
<mask id="mask0_0_3044" style="mask-type:alpha" maskUnits="userSpaceOnUse" x="0" y="0" width="48" height="48">
<path id="Shape_2" fill-rule="evenodd" clip-rule="evenodd" d="M45.3509 0H2.64914C1.18591 0 0 1.1859 0 2.64913V45.3507C0 46.8137 1.18591 48 2.64914 48H25.6384V29.4118H19.383V22.1676H25.6384V16.8253C25.6384 10.6257 29.4249 7.24977 34.9555 7.24977C37.6049 7.24977 39.8817 7.44688 40.5452 7.53501V14.0141L36.7094 14.0159C33.7016 14.0159 33.1191 15.4452 33.1191 17.5425V22.1676H40.2927L39.3587 29.4118H33.1191V48H45.3509C46.8139 48 48 46.8137 48 45.3507V2.64913C48 1.1859 46.8139 0 45.3509 0Z" fill="white"/>
</mask>
<g mask="url(#mask0_0_3044)">
</g>
</g>
</svg>
