<svg width="41" height="30" viewBox="0 0 41 30" fill="none" xmlns="http://www.w3.org/2000/svg">
<path fill-rule="evenodd" clip-rule="evenodd" d="M0 22.45C0 27.0195 2.7336 30 6.83343 30C10.7379 30 13.4715 27.2183 14.0575 23.2451C11.91 22.0525 9.6647 20.9604 9.6647 17.6817C9.6647 13.8079 12.1053 9.3378 19.9143 3.87381L17.8644 0C6.6381 7.35121 0 15.0988 0 22.45M21.0857 22.45C21.0857 27.0195 23.8193 30 27.9191 30C31.8236 30 34.5572 27.2183 35.1433 23.2451C32.9957 22.0525 30.7504 20.9604 30.7504 17.6817C30.7504 13.8079 33.1899 9.3378 41 3.87381L38.9501 0C27.7238 7.35121 21.0857 15.0988 21.0857 22.45" fill="#E76ECE"/>
</svg>
