<svg width="90" height="85" viewBox="0 0 90 85" fill="none" xmlns="http://www.w3.org/2000/svg">
<ellipse cx="45" cy="42.2892" rx="45" ry="42.2892" fill="#E76ECE"/>
<path fill-rule="evenodd" clip-rule="evenodd" d="M62.9802 54.9653H63.456C64.5318 54.9686 65.5623 55.4 66.3207 56.1647C67.0791 56.9293 67.5033 57.9646 67.5 59.0426V62.8064C67.5 63.1528 67.2197 63.4336 66.874 63.4336H61.1648C60.8191 63.4336 60.5388 63.1528 60.5388 62.8064C60.5355 62.6378 60.5999 62.475 60.7177 62.3547C60.8355 62.2343 60.9966 62.1665 61.1648 62.1665H62.6672V61.0876C62.6163 60.8336 62.7232 60.5738 62.9381 60.4297C63.153 60.2856 63.4334 60.2856 63.6483 60.4297C63.8632 60.5738 63.9702 60.8336 63.9192 61.0876V62.1665H66.2354V59.0301C66.2285 57.4899 64.9806 56.2449 63.4435 56.2449H55.9315C54.3944 56.2449 53.1464 57.4899 53.1395 59.0301V62.154H55.4557V61.075C55.4524 60.9065 55.5168 60.7437 55.6346 60.6234C55.7524 60.503 55.9135 60.4352 56.0817 60.4352C56.4344 60.4352 56.7202 60.7217 56.7202 61.075V62.154H58.2101C58.3783 62.1539 58.5395 62.2218 58.6573 62.3421C58.775 62.4625 58.8395 62.6253 58.8361 62.7938C58.8361 63.1403 58.5559 63.4211 58.2101 63.4211H52.501C52.1553 63.4211 51.875 63.1403 51.875 62.7938V59.0301C51.8819 56.788 53.694 54.9721 55.9315 54.9653H56.3947C54.8896 53.6007 54.3781 51.4484 55.1077 49.5505C55.8374 47.6525 57.6577 46.4005 59.6875 46.4005C61.7172 46.4005 63.5375 47.6525 64.2672 49.5505C64.9969 51.4484 64.4854 53.6007 62.9802 54.9653ZM58.2845 47.9953C56.9235 48.5644 56.0391 49.8994 56.0442 51.3772C56.0511 53.3886 57.6802 55.0155 59.6875 55.0154C61.1622 55.0154 62.4915 54.1246 63.0547 52.7588C63.6178 51.3931 63.3038 49.8218 62.2592 48.7787C61.2147 47.7355 59.6456 47.4263 58.2845 47.9953Z" fill="white"/>
<path fill-rule="evenodd" clip-rule="evenodd" d="M34.4649 55.0889H34.9775L35.0045 55.1013C37.4152 55.1081 39.3676 56.8973 39.375 59.1066V62.8153C39.375 62.9814 39.3021 63.1405 39.1727 63.2568C39.0433 63.3731 38.8683 63.4367 38.687 63.4334H32.5225C32.3413 63.4367 32.1662 63.3731 32.0368 63.2568C31.9074 63.1405 31.8345 62.9814 31.8345 62.8153C31.8345 62.4671 32.1425 62.1848 32.5225 62.1848H34.1277V61.1217C34.0728 60.8714 34.188 60.6154 34.4196 60.4734C34.6511 60.3315 34.9532 60.3315 35.1847 60.4734C35.4163 60.6154 35.5315 60.8714 35.4766 61.1217V62.1848H37.9451V59.0943C37.9451 57.5786 36.6044 56.3499 34.9505 56.3499H26.857C25.2009 56.3498 23.8563 57.5766 23.8489 59.0943V62.1725H26.3714V61.1093C26.3714 60.7611 26.6794 60.4788 27.0594 60.4788C27.2406 60.4788 27.4142 60.5456 27.5411 60.6642C27.668 60.7828 27.7374 60.9432 27.7338 61.1093V62.1725H29.3255C29.7055 62.1725 30.0135 62.4547 30.0135 62.8029C30.0135 62.969 29.9406 63.1282 29.8112 63.2444C29.6818 63.3607 29.5067 63.4244 29.3255 63.421H23.1879C23.0067 63.4244 22.8317 63.3607 22.7023 63.2444C22.5729 63.1282 22.5 62.969 22.5 62.8029V59.0943C22.5074 56.885 24.4598 55.0957 26.8705 55.0889H27.3831C26.2654 54.1791 25.627 52.8739 25.6295 51.5039C25.5308 49.7119 26.5178 48.016 28.1966 47.0929C29.8754 46.1697 31.9727 46.1697 33.6515 47.0929C35.3303 48.016 36.3173 49.7119 36.2185 51.5039C36.2211 52.8739 35.5826 54.1791 34.4649 55.0889ZM29.4223 48.2198C27.9543 48.7797 26.9999 50.0961 27.0054 51.5533C27.0054 52.5041 27.4175 53.416 28.1512 54.0883C28.8848 54.7606 29.8798 55.1384 30.9173 55.1384C32.5074 55.1434 33.9437 54.2687 34.5547 52.9233C35.1657 51.578 34.8308 50.0277 33.7064 48.9972C32.582 47.9668 30.8904 47.6598 29.4223 48.2198Z" fill="white"/>
<path fill-rule="evenodd" clip-rule="evenodd" d="M48.9703 40.8353H48.803V39.8445C48.8047 39.6203 48.9463 39.4184 49.1634 39.3307C52.6304 37.8148 54.8914 34.5605 54.9962 30.9355C55.101 27.3105 53.0313 23.9432 49.6571 22.2487C46.2829 20.5543 42.189 20.8266 39.096 22.951C38.8121 23.158 38.7497 23.5406 38.9544 23.8196C39.0551 23.9548 39.2092 24.0455 39.3814 24.0708C39.5537 24.0962 39.7295 24.0541 39.8685 23.9541C42.5663 22.1683 46.0914 21.9745 48.9879 23.4528C51.8845 24.9311 53.661 27.8306 53.5839 30.9539C53.5068 34.0773 51.5891 36.8944 48.6227 38.242C47.9467 38.5425 47.5114 39.1843 47.5027 39.8934V40.8843H45.6746V31.514C45.6672 31.0548 45.974 30.6442 46.4326 30.4995C46.8912 30.3547 47.3957 30.5093 47.6788 30.8814C47.962 31.2535 47.9584 31.7571 47.67 32.1256C47.4554 32.3998 47.5128 32.787 47.7988 32.9941C47.9137 33.0761 48.0542 33.1192 48.1979 33.1165C48.4 33.1146 48.59 33.0243 48.7128 32.8718C49.0337 32.4805 49.206 31.9978 49.202 31.5017C49.202 30.2316 48.1184 29.202 46.7818 29.202C46.1151 29.2002 45.479 29.4669 45.0309 29.9359C44.577 29.4676 43.9373 29.2014 43.2672 29.202C42.3551 29.2066 41.5231 29.698 41.1152 30.4732C40.7073 31.2484 40.7927 32.1757 41.3361 32.8718C41.4617 33.0278 41.6573 33.1184 41.8639 33.1165C42.0034 33.1174 42.1392 33.0744 42.2501 32.9941C42.3905 32.8966 42.4834 32.7493 42.5076 32.5857C42.5319 32.4221 42.4854 32.2562 42.3789 32.1256C42.0905 31.7571 42.087 31.2535 42.3701 30.8814C42.6533 30.5093 43.1577 30.3547 43.6163 30.4995C44.0749 30.6442 44.3817 31.0548 44.3743 31.514V40.8353H42.5591V39.8445C42.5431 39.1495 42.107 38.5256 41.4391 38.242C39.0579 37.2241 37.2803 35.2481 36.5926 32.8547C35.905 30.4612 36.3794 27.901 37.8859 25.8747C38.095 25.5942 38.0259 25.2058 37.7314 25.0061C37.4346 24.8143 37.0313 24.879 36.8174 25.1529C35.103 27.4802 34.5675 30.4117 35.3563 33.1519C36.145 35.892 38.1761 38.1564 40.8984 39.3307C41.1105 39.4221 41.2465 39.6232 41.246 39.8445V40.8353H41.0657C40.6506 40.8221 40.2476 40.9696 39.949 41.244C39.6505 41.5185 39.482 41.8963 39.4823 42.291V43.2941C39.484 43.8578 39.8309 44.369 40.3706 44.603V46.4624C40.3706 47.7258 41.4484 48.75 42.778 48.75H47.2066C48.5383 48.75 49.6198 47.7278 49.6269 46.4624V44.603C50.1594 44.3631 50.4997 43.8541 50.5023 43.2941V42.291C50.5023 41.905 50.3409 41.5347 50.0536 41.2617C49.7663 40.9887 49.3766 40.8353 48.9703 40.8353ZM40.8469 42.291C40.8467 42.1741 40.9428 42.0774 41.0657 42.0709H48.9832C49.1112 42.0709 49.2149 42.1694 49.2149 42.291V43.2941C49.2081 43.4109 49.1063 43.5023 48.9832 43.5021H41.0657C40.9476 43.496 40.8533 43.4064 40.8469 43.2941V42.291ZM42.8295 47.5144H47.2066C47.2239 47.5148 47.2411 47.5148 47.2583 47.5144C47.5366 47.5082 47.8028 47.4013 48.0017 47.2144C48.2129 47.016 48.3302 46.7446 48.3266 46.4624V44.7498H41.7223V46.4624C41.7223 47.0434 42.218 47.5144 42.8295 47.5144Z" fill="white"/>
<path d="M51.4537 42.4805C51.3233 42.602 51.25 42.7674 51.25 42.9399C51.25 43.1125 51.3233 43.2779 51.4537 43.3994L54.456 46.2338C54.734 46.466 55.1563 46.4543 55.4193 46.2072C55.6822 45.9601 55.6947 45.5632 55.4476 45.302L52.4315 42.4805C52.3022 42.358 52.1262 42.2891 51.9426 42.2891C51.759 42.2891 51.583 42.358 51.4537 42.4805Z" fill="white"/>
<path d="M35.0602 46.4005C35.245 46.4001 35.4221 46.3307 35.5526 46.2077L38.5477 43.3928C38.6772 43.2722 38.75 43.1079 38.75 42.9365C38.75 42.7652 38.6772 42.6009 38.5477 42.4803C38.2755 42.2253 37.8352 42.2253 37.563 42.4803L34.5679 45.2566C34.3107 45.5177 34.3107 45.9209 34.5679 46.182C34.6937 46.3145 34.8714 46.3934 35.0602 46.4005Z" fill="white"/>
</svg>
