<svg width="126" height="126" viewBox="0 0 126 126" fill="none" xmlns="http://www.w3.org/2000/svg">
<circle cx="63" cy="63" r="62" fill="#E76ECE" stroke="#E76ECE" stroke-width="2"/>
<path fill-rule="evenodd" clip-rule="evenodd" d="M95.2383 73.2103L81.1999 65.2V61.9135H83.5027C86.2359 61.9135 88.4594 59.6757 88.4594 56.9252V55.8194C88.4594 54.8183 87.6502 54.004 86.6554 54.004H84.2465C83.0984 54.004 82.0411 54.3999 81.1999 55.0618C81.1999 55.0618 81.178 48.5348 81.1398 48.2298H84.7919C86.2276 48.2298 87.6159 47.9242 88.9178 47.3215C89.3971 47.0999 89.6068 46.529 89.3864 46.0469C89.1662 45.5647 88.5992 45.3536 88.1198 45.5753C87.0699 46.0612 85.9502 46.3077 84.7919 46.3077H81.1999V44.8344C81.1999 40.4085 84.778 36.8076 89.176 36.8076H92.7681V38.2808C92.7681 40.0918 92.1811 41.8023 91.0705 43.2276C90.745 43.6454 90.8177 44.2494 91.2327 44.577C91.6478 44.9044 92.2481 44.8313 92.5736 44.4137C93.9504 42.6466 94.678 40.5258 94.678 38.2808V36.5387C94.678 35.6273 93.9411 34.8857 93.0354 34.8857H89.1759C83.9317 34.8857 79.6304 39.0167 79.3109 44.2146C77.9638 42.7086 76.0132 41.7599 73.8459 41.7599H70.7935C69.9616 41.7599 69.2847 42.4409 69.2847 43.2784V45.4968C69.2847 49.5774 72.5835 52.8972 76.6384 52.8972H79.2896V64.1104L64.4127 55.6215V53.5936H65.7744C67.529 53.5936 68.9565 52.157 68.9565 50.3912V49.4426C68.9565 48.4365 68.1431 47.6181 67.1435 47.6181H65.6849C65.1603 47.6181 64.6655 47.7472 64.2288 47.9744C63.7898 46.7341 62.6118 45.8435 61.2305 45.8435H59.7719C58.7722 45.8435 57.9589 46.6621 57.9589 47.6682V48.6168C57.9589 50.3825 59.3864 51.8191 61.141 51.8191H62.5027V52.6326V55.7489L45.6158 65.3846V61.9761V60.7886H46.9447C49.2139 60.7886 51.06 58.9308 51.06 56.6473V55.5228C51.06 54.5529 50.2759 53.7638 49.3121 53.7638H47.8214C46.2289 53.7638 44.846 54.6793 44.1619 56.0141C43.1811 54.9609 41.7879 54.3009 40.2437 54.3009H38.7979C37.8255 54.3009 37.0343 55.097 37.0343 56.0757V57.5307C37.0343 60.5118 39.4444 62.9371 42.4066 62.9371H43.7059V66.4744L39.9827 68.5988C39.5237 68.8606 39.3628 69.4471 39.6229 69.909C39.8831 70.3707 40.466 70.5325 40.9248 70.271L43.7061 68.6841V74.9207C43.7061 75.4516 44.1335 75.8817 44.6611 75.8817C45.1886 75.8817 45.6161 75.4516 45.6161 74.9207V67.5941L49.177 65.5622L61.5854 72.6425L45.8402 81.6268L33.5964 74.4526L37.0606 72.4759C37.5195 72.2141 37.6804 71.6276 37.4203 71.1658C37.16 70.704 36.5771 70.542 36.1184 70.8038L31.9009 73.2103C31.4623 73.4606 31.1879 73.9313 31.1851 74.4387C31.1823 74.946 31.4512 75.4198 31.887 75.675L45.3586 83.5687L45.3613 83.5702L62.859 93.823C63.0781 93.9514 63.3237 94.0156 63.5695 94.0156C63.8153 94.0156 64.061 93.9514 64.2802 93.823L87.0703 80.4691C87.5261 80.2021 87.6805 79.6137 87.4151 79.155C87.1496 78.6963 86.5646 78.5407 86.1093 78.808L81.2517 81.6543L65.4579 72.6423L77.9143 65.5345L79.2899 66.3194V73.5755C79.2899 74.1064 79.7173 74.5366 80.2449 74.5366C80.7724 74.5366 81.1999 74.1064 81.1999 73.5755V67.4095L93.5428 74.4524L89.9295 76.5697C89.4736 76.8368 89.3193 77.4252 89.5846 77.8839C89.7621 78.1905 90.082 78.3616 90.4108 78.3616C90.5739 78.3616 90.7393 78.3195 90.8904 78.2309L95.2523 75.675C95.688 75.4198 95.957 74.946 95.9542 74.4387C95.9512 73.9313 95.677 73.4606 95.2383 73.2103ZM84.2465 55.9261H86.5494V56.9252C86.5494 58.6158 85.1827 59.9913 83.5027 59.9913H81.1999V58.9922C81.1999 57.3016 82.5667 55.9261 84.2465 55.9261ZM71.1949 45.4965C71.1949 48.5172 73.637 50.9748 76.6386 50.9748H79.2899V49.1603C79.2899 46.1395 76.8477 43.6819 73.8461 43.6819H71.1949V45.4965ZM45.6161 57.905C45.6161 56.6813 46.6055 55.6857 47.8214 55.6857H49.1502V56.647C49.1502 57.8708 48.1609 58.8662 46.9449 58.8662H45.6161V57.905ZM38.9445 57.5305C38.9445 59.4517 40.4976 61.0147 42.4067 61.0147H43.7061V59.707C43.7061 57.7857 42.153 56.2228 40.2438 56.2228H38.9445V57.5305ZM65.6853 49.5398H67.0469V50.391C67.0469 51.0969 66.4763 51.6712 65.7748 51.6712H64.4131V50.82C64.413 50.114 64.9838 49.5398 65.6853 49.5398ZM59.8692 47.7652V48.6164C59.8692 49.3224 60.4397 49.8967 61.1412 49.8966H62.503V49.0455C62.503 48.3395 61.9322 47.7652 61.2307 47.7652H59.8692ZM79.3412 82.7739L63.5698 92.0152L47.7508 82.7461L63.5218 73.7473L79.3412 82.7739ZM51.1132 64.4572L63.5216 71.5376L75.9781 64.43L64.4131 57.8308V64.4572C64.4131 64.9881 63.9856 65.4183 63.4581 65.4183C62.9305 65.4183 62.5031 64.9881 62.5031 64.4572V57.9582L51.1132 64.4572Z" fill="white"/>
<path fill-rule="evenodd" clip-rule="evenodd" d="M61.1411 84.9733H62.5028V87.1676C62.5028 87.6985 62.9303 88.1287 63.4578 88.1287C63.9854 88.1287 64.4128 87.6985 64.4128 87.1676V84.9733H65.6222C67.2757 84.9733 68.6208 83.6197 68.6208 81.9556V81.1068C68.6208 80.2289 67.9111 79.5146 67.0387 79.5146H65.5014C64.8119 79.5146 64.1765 79.7507 63.6694 80.1457C63.0852 79.4445 62.2089 78.9976 61.2306 78.9976H59.772C58.7723 78.9976 57.959 79.8161 57.959 80.8222V81.7708C57.959 83.5367 59.3865 84.9733 61.1411 84.9733ZM65.5014 81.4369H66.7108V81.9557C66.7108 82.5598 66.2225 83.0512 65.6222 83.0512H64.4128V82.5324C64.4128 81.9282 64.9011 81.4369 65.5014 81.4369ZM61.2306 80.9197H59.869V81.771C59.869 82.4769 60.4396 83.0511 61.1411 83.0511H62.5028V82.1999C62.5028 81.4939 61.9321 80.9197 61.2306 80.9197Z" fill="white"/>
<path fill-rule="evenodd" clip-rule="evenodd" d="M39.2535 36.1779C38.8205 38.0326 37.1637 39.4181 35.1904 39.4181C32.8885 39.4181 31.0156 37.5334 31.0156 35.2168C31.0156 32.9002 32.8885 31.0156 35.1904 31.0156C37.1637 31.0156 38.8205 32.401 39.2537 34.2559H44.6609C44.9143 34.2559 45.1572 34.3571 45.3363 34.5373L55.5212 44.7868C55.8942 45.1621 55.8942 45.7706 55.5212 46.146C55.3346 46.3336 55.0902 46.4274 54.8458 46.4274C54.6015 46.4274 54.357 46.3336 54.1704 46.146L44.2653 36.1779H39.2535ZM37.4551 35.2168C37.4551 33.9602 36.4392 32.9378 35.1904 32.9378C33.9416 32.9378 32.9256 33.9601 32.9256 35.2168C32.9256 36.4736 33.9416 37.496 35.1904 37.496C36.4391 37.496 37.4551 36.4736 37.4551 35.2168Z" fill="white"/>
<path d="M44.6609 41.4839H39.4535C38.926 41.4839 38.4985 41.9141 38.4985 42.445C38.4985 42.9759 38.926 43.406 39.4535 43.406H44.661C45.1886 43.406 45.616 42.9759 45.616 42.445C45.616 41.9141 45.1884 41.4839 44.6609 41.4839Z" fill="white"/>
<path d="M44.661 45.4717H33.7919C33.2644 45.4717 32.8369 45.9019 32.8369 46.4328C32.8369 46.9637 33.2644 47.3938 33.7919 47.3938H44.661C45.1885 47.3938 45.616 46.9637 45.616 46.4328C45.616 45.9019 45.1885 45.4717 44.661 45.4717V45.4717Z" fill="white"/>
<path d="M44.661 49.4595H33.7919C33.2644 49.4595 32.8369 49.8896 32.8369 50.4205C32.8369 50.9514 33.2644 51.3816 33.7919 51.3816H44.661C45.1885 51.3816 45.616 50.9514 45.616 50.4205C45.616 49.8896 45.1885 49.4595 44.661 49.4595Z" fill="white"/>
<path d="M33.7919 43.406H36.0095C36.537 43.406 36.9645 42.9759 36.9645 42.445C36.9645 41.9141 36.537 41.4839 36.0095 41.4839H33.7919C33.2644 41.4839 32.8369 41.9141 32.8369 42.445C32.8369 42.9759 33.2644 43.406 33.7919 43.406Z" fill="white"/>
</svg>
