<svg width="28" height="24" viewBox="0 0 28 24" fill="none" xmlns="http://www.w3.org/2000/svg">
<path d="M27.2729 21V12H25.3249V21C25.3249 21.5523 24.8888 22 24.3509 22H2.9223C2.38436 22 1.94827 21.5523 1.94827 21V12L0.000221252 12V21C0.000221252 22.6569 1.30848 24 2.9223 24H24.3509C25.9647 24 27.2729 22.6569 27.2729 21V21Z" fill="black"/>
<path d="M7.40264 12L12.2728 17C13.0326 17.7754 14.2597 17.7754 15.0195 17L19.8896 12L18.5065 10.55L14.6104 14.55V0L12.6624 0V14.59L8.76627 10.59L7.40264 12Z" fill="black"/>
</svg>
