<svg width="48" height="48" viewBox="0 0 48 48" fill="none" xmlns="http://www.w3.org/2000/svg">
<g id="Icon/Social/Email">
<g id="mail-5726">
<path id="Shape" fill-rule="evenodd" clip-rule="evenodd" d="M42.9525 4H5.04747C2.26453 4 0 6.55668 0 9.69863V38.3014C0 41.4439 2.26453 44 5.04747 44H42.9525C45.736 44 48 41.4439 48 38.3014V9.69863C48 6.55668 45.736 4 42.9525 4ZM5.04747 7.61283H42.9525C43.9712 7.61283 44.8 8.54855 44.8 9.69863V12.6786L24.6357 23.1943C24.2315 23.4051 23.7675 23.4045 23.3632 23.1943L3.2 12.6786V9.69863C3.2 8.54855 4.0288 7.61283 5.04747 7.61283ZM3.2 38.3014C3.2 39.4515 4.0288 40.3872 5.04747 40.3872H42.9525C43.9712 40.3872 44.8 39.4515 44.8 38.3014V16.6581L25.9781 26.4742C25.3499 26.8017 24.6752 26.9655 24 26.9655C23.3248 26.9655 22.6501 26.8023 22.0213 26.4742L3.2 16.6587V38.3014Z" fill="black"/>
</g>
</g>
</svg>
