<svg width="80" height="80" viewBox="0 0 80 80" fill="none" xmlns="http://www.w3.org/2000/svg">
<circle cx="40" cy="40" r="40" fill="#24c270"/>
<path fill-rule="evenodd" clip-rule="evenodd" d="M60.2113 46.7903L51.2758 41.7044V39.6177H52.7416C54.4812 39.6177 55.8965 38.1969 55.8965 36.4506V35.7485C55.8965 35.1129 55.3814 34.5958 54.7483 34.5958H53.215C52.4843 34.5958 51.8113 34.8472 51.2758 35.2675C51.2758 35.2675 51.2619 31.1233 51.2376 30.9297H53.5621C54.476 30.9297 55.3596 30.7357 56.1883 30.353C56.4934 30.2123 56.6268 29.8498 56.4865 29.5437C56.3464 29.2376 55.9855 29.1036 55.6804 29.2443C55.0121 29.5528 54.2994 29.7093 53.5621 29.7093H51.2758V28.7739C51.2758 25.9638 53.5533 23.6775 56.3526 23.6775H58.639V24.6128C58.639 25.7627 58.2654 26.8487 57.5585 27.7537C57.3513 28.0189 57.3976 28.4025 57.6617 28.6104C57.926 28.8183 58.308 28.7719 58.5152 28.5068C59.3916 27.3848 59.8547 26.0383 59.8547 24.6128V23.5067C59.8547 22.9281 59.3856 22.4573 58.8092 22.4573H56.3526C53.0147 22.4573 50.2768 25.0801 50.0735 28.3803C49.2161 27.4242 47.9745 26.8218 46.5951 26.8218H44.6522C44.1227 26.8218 43.6918 27.2542 43.6918 27.7859V29.1944C43.6918 31.7853 45.7915 33.8931 48.3724 33.8931H50.06V41.0126L40.5908 35.6228V34.3353H41.4575C42.5743 34.3353 43.4829 33.4232 43.4829 32.302V31.6997C43.4829 31.0609 42.9652 30.5413 42.329 30.5413H41.4006C41.0666 30.5413 40.7517 30.6233 40.4738 30.7676C40.1943 29.9801 39.4445 29.4146 38.5653 29.4146H37.6369C37.0006 29.4146 36.4829 29.9343 36.4829 30.5731V31.1754C36.4829 32.2965 37.3916 33.2086 38.5084 33.2086H39.3751V33.7251V35.7037L28.6266 41.8216V39.6575V38.9036H29.4724C30.9168 38.9036 32.0918 37.724 32.0918 36.2741V35.5602C32.0918 34.9444 31.5927 34.4434 30.9793 34.4434H30.0304C29.0168 34.4434 28.1366 35.0246 27.7012 35.8721C27.0769 35.2034 26.1901 34.7843 25.2072 34.7843H24.287C23.668 34.7843 23.1645 35.2898 23.1645 35.9112V36.835C23.1645 38.7278 24.6985 40.2677 26.5839 40.2677H27.4109V42.5135L25.0411 43.8624C24.749 44.0286 24.6465 44.401 24.8121 44.6943C24.9777 44.9874 25.3487 45.0902 25.6408 44.9241L27.411 43.9165V47.8763C27.411 48.2134 27.6831 48.4865 28.0189 48.4865C28.3547 48.4865 28.6267 48.2134 28.6267 47.8763V43.2245L30.8933 41.9344L38.7912 46.4298L28.7694 52.1341L20.9763 47.5791L23.1812 46.3241C23.4733 46.1579 23.5757 45.7855 23.4101 45.4922C23.2445 45.199 22.8734 45.0962 22.5815 45.2624L19.897 46.7903C19.6179 46.9492 19.4432 47.2481 19.4414 47.5703C19.4397 47.8924 19.6108 48.1932 19.8882 48.3552L28.4629 53.3671L28.4646 53.368L39.6019 59.8777C39.7413 59.9593 39.8977 60 40.0541 60C40.2105 60 40.367 59.9593 40.5064 59.8777L55.0124 51.3991C55.3025 51.2296 55.4007 50.856 55.2318 50.5648C55.0628 50.2735 54.6905 50.1747 54.4007 50.3444L51.3088 52.1516L41.2561 46.4297L49.1846 41.9168L50.0601 42.4152V47.0222C50.0601 47.3593 50.3322 47.6324 50.668 47.6324C51.0038 47.6324 51.2758 47.3593 51.2758 47.0222V43.1073L59.1321 47.579L56.8322 48.9233C56.5421 49.0929 56.4438 49.4665 56.6127 49.7577C56.7257 49.9524 56.9293 50.061 57.1386 50.061C57.2424 50.061 57.3477 50.0343 57.4439 49.978L60.2202 48.3552C60.4976 48.1932 60.6687 47.8924 60.6669 47.5703C60.6651 47.2481 60.4905 46.9492 60.2113 46.7903ZM53.215 35.8162H54.6808V36.4506C54.6808 37.524 53.8109 38.3973 52.7416 38.3973H51.2758V37.763C51.2758 36.6896 52.1458 35.8162 53.215 35.8162ZM44.9077 29.1943C44.9077 31.1122 46.4621 32.6725 48.3726 32.6725H50.0601V31.5205C50.0601 29.6025 48.5057 28.0421 46.5951 28.0421H44.9077V29.1943ZM28.6267 37.0727C28.6267 36.2957 29.2565 35.6636 30.0304 35.6636H30.8763V36.274C30.8763 37.051 30.2465 37.683 29.4726 37.683H28.6267V37.0727ZM24.3803 36.8349C24.3803 38.0547 25.3688 39.0471 26.584 39.0471H27.411V38.2168C27.411 36.9969 26.4225 36.0046 25.2073 36.0046H24.3803V36.8349ZM41.4008 31.7615H42.2675V32.3019C42.2675 32.7501 41.9043 33.1147 41.4578 33.1147H40.5911V32.5743C40.591 32.126 40.9543 31.7615 41.4008 31.7615ZM37.6988 30.6347V31.1752C37.6988 31.6234 38.062 31.988 38.5085 31.988H39.3752V31.4476C39.3752 30.9994 39.012 30.6347 38.5655 30.6347H37.6988ZM50.0928 52.8625L40.0543 58.73L29.9855 52.8448L40.0237 47.1313L50.0928 52.8625ZM32.1257 41.2328L40.0236 45.7283L47.9522 41.2155L40.5911 37.0256V41.2328C40.5911 41.5699 40.319 41.843 39.9832 41.843C39.6474 41.843 39.3753 41.5699 39.3753 41.2328V37.1065L32.1257 41.2328Z" fill="white"/>
<path fill-rule="evenodd" clip-rule="evenodd" d="M38.5098 54.2589H39.3765V55.6522C39.3765 55.9892 39.6486 56.2624 39.9844 56.2624C40.3202 56.2624 40.5922 55.9892 40.5922 55.6522V54.2589H41.362C42.4145 54.2589 43.2707 53.3995 43.2707 52.343V51.804C43.2707 51.2466 42.8189 50.7931 42.2636 50.7931H41.2851C40.8462 50.7931 40.4418 50.943 40.1191 51.1938C39.7472 50.7486 39.1895 50.4648 38.5668 50.4648H37.6383C37.002 50.4648 36.4844 50.9846 36.4844 51.6233V52.2257C36.4844 53.3468 37.393 54.2589 38.5098 54.2589ZM41.2851 52.0136H42.0549V52.3431C42.0549 52.7266 41.7441 53.0386 41.362 53.0386H40.5922V52.7092C40.5922 52.3256 40.9031 52.0136 41.2851 52.0136ZM38.5668 51.6853H37.7001V52.2257C37.7001 52.674 38.0633 53.0385 38.5098 53.0385H39.3765V52.4981C39.3765 52.0498 39.0133 51.6853 38.5668 51.6853Z" fill="white"/>
<path fill-rule="evenodd" clip-rule="evenodd" d="M24.5774 23.2776C24.3018 24.4552 23.2473 25.3349 21.9912 25.3349C20.526 25.3349 19.334 24.1383 19.334 22.6674C19.334 21.1966 20.526 20 21.9912 20C23.2473 20 24.3018 20.8796 24.5775 22.0573H28.0192C28.1805 22.0573 28.3351 22.1216 28.4491 22.236L34.9318 28.7436C35.1692 28.9819 35.1692 29.3682 34.9318 29.6066C34.813 29.7257 34.6574 29.7853 34.5019 29.7853C34.3464 29.7853 34.1908 29.7257 34.072 29.6066L27.7674 23.2776H24.5774ZM23.4327 22.6674C23.4327 21.8696 22.7861 21.2204 21.9912 21.2204C21.1964 21.2204 20.5497 21.8695 20.5497 22.6674C20.5497 23.4654 21.1964 24.1145 21.9912 24.1145C22.786 24.1145 23.4327 23.4654 23.4327 22.6674Z" fill="white"/>
<path d="M28.02 26.6464H24.7055C24.3697 26.6464 24.0977 26.9196 24.0977 27.2566C24.0977 27.5937 24.3697 27.8668 24.7055 27.8668H28.0201C28.3559 27.8668 28.6279 27.5937 28.6279 27.2566C28.6279 26.9196 28.3558 26.6464 28.02 26.6464Z" fill="white"/>
<path d="M28.0201 29.1785H21.102C20.7662 29.1785 20.4941 29.4516 20.4941 29.7887C20.4941 30.1258 20.7662 30.3989 21.102 30.3989H28.0201C28.3559 30.3989 28.628 30.1258 28.628 29.7887C28.628 29.4516 28.3559 29.1785 28.0201 29.1785V29.1785Z" fill="white"/>
<path d="M28.0201 31.7105H21.102C20.7662 31.7105 20.4941 31.9836 20.4941 32.3207C20.4941 32.6578 20.7662 32.9309 21.102 32.9309H28.0201C28.3559 32.9309 28.628 32.6578 28.628 32.3207C28.628 31.9836 28.3559 31.7105 28.0201 31.7105Z" fill="white"/>
<path d="M21.102 27.8668H22.5135C22.8492 27.8668 23.1213 27.5937 23.1213 27.2566C23.1213 26.9196 22.8492 26.6464 22.5135 26.6464H21.102C20.7662 26.6464 20.4941 26.9196 20.4941 27.2566C20.4941 27.5937 20.7662 27.8668 21.102 27.8668Z" fill="white"/>
</svg>
