<svg width="48" height="48" viewBox="0 0 48 48" fill="none" xmlns="http://www.w3.org/2000/svg">
<g id="Icon/Social/Twitter">
<path id="Shape" fill-rule="evenodd" clip-rule="evenodd" d="M48 8.76923C46.2056 9.53846 44.4112 10.1538 42.3178 10.3077C44.4112 9.07692 45.9065 7.07692 46.6542 4.76923C44.7103 6 42.6168 6.76923 40.3738 7.23077C38.5794 5.23077 36.0374 4 33.3458 4C27.9626 4 23.4766 8.46154 23.4766 14.1538C23.4766 14.9231 23.6262 15.6923 23.7757 16.4615C15.5514 16 8.37383 12 3.43925 5.84615C2.54206 7.38462 2.09346 9.07692 2.09346 10.9231C2.09346 14.4615 3.88785 17.5385 6.42991 19.3846C4.78505 19.3846 3.28972 18.9231 1.94393 18.1538V18.3077C1.94393 23.2308 5.38318 27.2308 9.86916 28.1538C8.97196 28.3077 8.2243 28.4615 7.3271 28.4615C6.72897 28.4615 6.13084 28.4615 5.53271 28.3077C6.72897 32.3077 10.4673 35.2308 14.6542 35.3846C11.3645 38.1538 7.02804 39.6923 2.39252 39.6923C1.64486 39.6923 0.747664 39.6923 0 39.5385C4.48598 42.3077 9.71963 44 15.2523 44C33.3458 44 43.215 28.6154 43.215 15.2308V14C45.0093 12.4615 46.6542 10.7692 48 8.76923Z" fill="black"/>
</g>
</svg>
